<?xml version="1.0" encoding="utf-8"?>
<!-- Generator: Adobe Illustrator 24.3.0, SVG Export Plug-In . SVG Version: 6.00 Build 0)  -->
<svg version="1.1" id="圖層_1" xmlns="http://www.w3.org/2000/svg" xmlns:xlink="http://www.w3.org/1999/xlink" x="0px" y="0px"
	 viewBox="0 0 178.4 111.1" style="enable-background:new 0 0 178.4 111.1;" xml:space="preserve">
<style type="text/css">
	.st0{fill:#F4BB00;}
	.st1{fill:#192469;}
	.st2{clip-path:url(#SVGID_2_);fill:#192469;}
</style>
<rect y="95.1" class="st0" width="178.4" height="16"/>
<rect y="0" class="st1" width="178.4" height="16"/>
<g>
	<defs>
		<rect id="SVGID_1_" y="0" width="178.4" height="111.1"/>
	</defs>
	<clipPath id="SVGID_2_">
		<use xlink:href="#SVGID_1_"  style="overflow:visible;"/>
	</clipPath>
	<path class="st2" d="M71.4,33.6L53,77.6h-12l-9.1-35.1c-0.5-2.2-1-2.9-2.7-3.9c-2.7-1.5-7.2-2.9-11.2-3.7l0.3-1.3h19.3
		c2.5,0,4.7,1.6,5.2,4.5l4.8,25.4l11.8-29.9H71.4z M118.5,63.2c0.1-11.6-16-12.2-15.9-17.4c0-1.6,1.5-3.3,4.8-3.7
		c1.6-0.2,6.1-0.4,11.2,2l2-9.3c-2.7-1-6.3-1.9-10.6-1.9c-11.2,0-19.1,6-19.2,14.5c-0.1,6.3,5.6,9.9,9.9,12c4.4,2.2,5.9,3.5,5.9,5.5
		c0,2.9-3.5,4.3-6.8,4.3c-5.7,0.1-9-1.5-11.7-2.8L86,75.9c2.7,1.2,7.6,2.3,12.6,2.3C110.6,78.2,118.4,72.3,118.5,63.2 M148.2,77.6
		h10.5l-9.2-44h-9.7c-2.2,0-4,1.3-4.8,3.2l-17.1,40.7h11.9l2.4-6.6h14.6L148.2,77.6z M135.5,62l6-16.5l3.4,16.5H135.5z M87.6,33.6
		l-9.4,44H66.9l9.4-44H87.6z"/>
</g>
</svg>
