<?xml version="1.0" encoding="utf-8"?>
<!-- Generator: Adobe Illustrator 24.3.0, SVG Export Plug-In . SVG Version: 6.00 Build 0)  -->
<svg version="1.1"
	 id="圖層_1" xmlns:cc="http://creativecommons.org/ns#" xmlns:dc="http://purl.org/dc/elements/1.1/" xmlns:rdf="http://www.w3.org/1999/02/22-rdf-syntax-ns#"
	 xmlns="http://www.w3.org/2000/svg" xmlns:xlink="http://www.w3.org/1999/xlink" x="0px" y="0px" viewBox="0 0 300 51.8"
	 style="enable-background:new 0 0 300 51.8;" xml:space="preserve">
<style type="text/css">
	.st0{fill:#83BA3B;}
</style>
<path class="st0" d="M294.5,3.9c-3.8-2.6-9.6-3.9-17.2-3.9h-19.9l-7.4,40.1h-26l1.7-9.1h15.7l1.9-10.2l-15.7,0l1.7-9.1h16.1L247.6,0
	h-32.8l-7,38h-12l7.1-38h-17.1l-7,38h-11.7L174,0h-17.1l-7.4,40.1h-26.2l1.7-9.1h15.7l1.9-10.2l-15.7,0l1.7-9.1h16.3L146.9,0H44.7
	l-5.8,31.8L27.3,0H9.6L0,51.8h17l5.8-32.6L34,51.8h60.9l7.4-40.1h9.5l-7.4,40.1h160.1l4.6-25.3l7.5,25.3h17l-7.8-20.7l1.8-0.4
	c3.9-0.8,7-2.6,9.1-5.4c2.1-2.7,3.2-6.2,3.2-10.5C300,10.1,298.2,6.5,294.5,3.9L294.5,3.9z M80.1,40.1h-26l1.7-9.1h16.3l1.8-10.2
	H57.8l1.6-9h26L80.1,40.1L80.1,40.1z M280.5,22.6c-1.7,1.2-4.2,1.8-7.6,1.8h-3.4l2.6-13.9h2.5c2.8,0,4.9,0.5,6.3,1.4
	c1.1,0.7,2.4,2.1,2.4,4.8C283.3,20,281.8,21.7,280.5,22.6L280.5,22.6z"/>
</svg>
