<?xml version="1.0" encoding="utf-8"?>
<!-- Generator: Adobe Illustrator 24.3.0, SVG Export Plug-In . SVG Version: 6.00 Build 0)  -->
<svg version="1.1" id="_x30_75_x5F_icconCheck01" xmlns="http://www.w3.org/2000/svg" xmlns:xlink="http://www.w3.org/1999/xlink"
	 x="0px" y="0px" viewBox="0 0 100 100" style="enable-background:new 0 0 100 100;" xml:space="preserve">
<style type="text/css">
	.st0{fill:#1EB4F0;}
</style>
<path class="st0" d="M72.1,34.1c1.5,1.5,1.5,4,0,5.5L45.9,65.9c-1.5,1.5-4,1.5-5.5,0L27.9,53.4c-1.5-1.5-1.5-4,0-5.5s4-1.5,5.5,0
	l9.7,9.7l23.4-23.4C68.1,32.6,70.6,32.6,72.1,34.1 M100,50c0,27.6-22.4,50-50,50S0,77.6,0,50S22.4,0,50,0S100,22.4,100,50 M92.2,50
	C92.2,26.7,73.3,7.8,50,7.8S7.8,26.7,7.8,50S26.7,92.2,50,92.2S92.2,73.3,92.2,50"/>
</svg>
