<?xml version="1.0" encoding="utf-8"?>
<!-- Generator: Adobe Illustrator 24.3.0, SVG Export Plug-In . SVG Version: 6.00 Build 0)  -->
<svg version="1.1" id="_x30_76_x5F_icconCheck02" xmlns="http://www.w3.org/2000/svg" xmlns:xlink="http://www.w3.org/1999/xlink"
	 x="0px" y="0px" viewBox="0 0 100 100" style="enable-background:new 0 0 100 100;" xml:space="preserve">
<style type="text/css">
	.st0{fill:#1EB4F0;}
</style>
<path class="st0" d="M50,0C22.4,0,0,22.4,0,50s22.4,50,50,50s50-22.4,50-50S77.6,0,50,0 M77.9,36.8L46,68.5c-1.9,1.9-4.9,2-6.9,0.1
	L22.2,53.3c-2-1.9-2.1-5-0.4-7c1.9-2,5-2.1,7-0.3l13.4,12.3l28.6-28.6c2-2,5.1-2,7.1,0S79.9,34.8,77.9,36.8"/>
</svg>
