<?xml version="1.0" encoding="utf-8"?>
<!-- Generator: Adobe Illustrator 25.2.1, SVG Export Plug-In . SVG Version: 6.00 Build 0)  -->
<svg version="1.1" id="Layer_1" xmlns="http://www.w3.org/2000/svg" xmlns:xlink="http://www.w3.org/1999/xlink" x="0px" y="0px"
	 viewBox="0 0 1680 327" style="enable-background:new 0 0 1680 327;" xml:space="preserve">
<style type="text/css">
	.st0{fill:#DAB896;}
</style>
<g>
	<g>
		<polygon class="st0" points="412,323.7 445.9,278.4 445.9,29.4 412,29.4 		"/>
		<polygon class="st0" points="533.7,90.3 577.6,90.3 497.7,183.9 578.2,278.4 534.3,278.4 452.6,184.4 		"/>
		<path class="st0" d="M677.3,85.1c-27.5,0-51.4,9.8-71.1,29.1c-19.8,19.3-29.8,42.9-29.8,70c0,27.1,10,50.7,29.8,70.1
			c19.7,19.4,43.7,29.2,71.1,29.2c20.4,0,39.3-5.9,56.3-17.5l2.8-1.9v-45.4l-10.9,11.3c-13.4,14-29.2,20.8-48.2,20.8
			c-18.4,0-33.8-6.4-46.9-19.7c-13.1-13.2-19.5-28.6-19.5-47.1c0-18.4,6.4-33.8,19.5-46.9c13.1-13.1,28.5-19.5,46.9-19.5
			c19,0,34.8,6.8,48.2,20.8l10.9,11.3v-45.4l-2.8-1.9C716.6,91,697.7,85.1,677.3,85.1z"/>
		<path class="st0" d="M1081.4,173.1c-7.9-2.9-16.6-5.5-25.8-7.8c-9.2-2.2-17.8-4.1-25.5-5.5c-6.5-1.2-12-3.6-16.3-7.3
			c-3.7-3.2-5.5-7.3-5.5-12.9c0-5.8,2.8-10.8,8.5-15.1c6.3-4.8,13.7-7.1,22.7-7.1c9.1,0,16.5,2.5,22.8,7.7
			c5.9,4.8,8.8,10.8,8.8,18.2v6.3h33.5v-6.3c0-16.8-6.6-30.9-19.5-41.9c-12.6-10.8-28-16.2-45.6-16.2c-17.6,0-32.9,5.2-45.8,15.3
			c-13.3,10.5-20,23.7-20,39.2c0,12.3,3,22.5,9,30.5c5.9,7.9,13.5,13.4,22.4,16.2c7.8,2.5,16.5,4.8,25.7,6.8
			c9.1,2,17.6,3.9,25.2,5.5c6.5,1.4,11.7,4.2,16,8.5c4,4.1,5.9,9.5,5.9,16.5c0,7.3-3.5,13.4-10.8,18.9c-7.8,5.9-16.9,8.7-27.7,8.7
			c-11,0-20-3-27.8-9.1c-7.3-5.8-10.8-12.8-10.8-21.6v-6.3h-34.2v6.3c0,18.7,7.3,34.1,21.6,45.8c13.9,11.4,31.1,17.2,51.1,17.2
			c20,0,37.2-5.6,51.2-16.7c14.5-11.4,21.8-26,21.8-43.3c0-13-3-23.9-8.8-32.5C1097.8,182.5,1090.3,176.4,1081.4,173.1z"/>
		<rect x="1130.2" y="90.3" class="st0" width="33.8" height="188.1"/>
		<path class="st0" d="M1147.1,24.2c-5.5,0-10.5,2.1-14.7,6.2c-4.2,4.1-6.5,9.3-6.5,15c0,5.7,2.2,10.9,6.5,15
			c4.2,4.1,9.2,6.2,14.7,6.2c5.5,0,10.5-2.1,14.7-6.2c4.2-4.1,6.5-9.3,6.5-15c0-5.7-2.2-10.9-6.5-15
			C1157.6,26.3,1152.7,24.2,1147.1,24.2z"/>
		<path class="st0" d="M1269,85.1c-23.5,0-43.1,7.7-58.3,22.9c-15.2,15.2-22.9,34.6-22.9,57.7v112.7h33.8V165.7
			c0-13.3,4.6-24.4,13.9-33.9c9.4-9.4,20.3-14,33.4-14c13.1,0,24,4.6,33.4,14c9.4,9.5,13.9,20.6,13.9,33.9v112.7h33.8V165.7
			c0-23.1-7.7-42.5-22.9-57.7C1312.1,92.8,1292.5,85.1,1269,85.1z"/>
		<path class="st0" d="M919.7,114.1c-19.5-19.2-43.4-28.9-70.8-28.9c-27.5,0-51.4,9.8-71.1,29.1c-19.8,19.3-29.8,42.9-29.8,70
			c0,27.1,10,50.7,29.8,70.1c19.7,19.4,43.7,29.2,71.1,29.2c11.9,0,23.4-2,34.2-6v-36c-10.1,6.3-21.4,9.4-34.2,9.4
			c-18.4,0-33.8-6.4-46.9-19.7c-13.1-13.2-19.5-28.6-19.5-47.1c0-18.4,6.4-33.8,19.5-46.9c13.1-13.1,28.5-19.5,46.9-19.5
			c18.4,0,33.8,6.4,46.9,19.5c13.1,13.1,19.5,28.5,19.5,46.9v94.2h33.8v-94.2C949.2,156.9,939.2,133.3,919.7,114.1z"/>
		<path class="st0" d="M1547.2,121l-11.1-13.1v76.3c0,18.4-6.4,33.8-19.5,47.1c-13.1,13.2-28.5,19.7-46.9,19.7
			c-18.4,0-33.8-6.4-46.9-19.7l0,0c-13.1-13.2-19.5-28.6-19.5-47.1c0-18.4,6.4-33.8,19.5-46.9c13.1-13.1,28.5-19.5,46.9-19.5
			c12.7,0,23.9,3,33.9,9.2V91c-10.8-3.9-22.2-5.9-33.9-5.9c-27.5,0-51.4,9.8-71.1,29.1c-19.8,19.3-29.8,42.9-29.8,70
			c0,27.3,10,51,29.8,70.3c19.7,19.3,43.6,29.1,71.1,29.1c27.7,0,51.6-9.8,71.3-29.1c19.7-19.3,29.6-43,29.6-70.3
			C1570.6,160.5,1562.7,139.3,1547.2,121z"/>
	</g>
	<g>
		<path class="st0" d="M271.7,175c-17.2-18.8-27.9-33.5-31.9-38.5c-3.7,4.9-13.5,19.1-31.7,38.5c-36.7,37.5-1,64.9,28,46.9
			c0.2,9.2-7.1,17.9-11.5,26.1H256c-4.6-8-12.3-16.9-12.5-26.1C273.1,239,304.7,209.3,271.7,175z"/>
		<g>
			<path class="st0" d="M367.8,176.1l-27.8,3.5c-1.4-10.9-4.5-21.3-9-30.9l25.3-12c-11.2-23.5-29.2-43.1-51.5-56.2l-14.2,24.2
				c-9.2-5.4-19.3-9.4-30-11.7l5.9-27.4c-8.8-1.9-18-2.9-27.3-2.9c-30.5,0-58.6,10.5-80.7,28.2l17.5,21.9
				c-8.4,6.7-15.8,14.8-21.7,23.8l-23.4-15.4c-13.4,20.4-21.3,44.9-21.3,71.1c0,5.5,0.4,10.9,1,16.2l27.8-3.5
				c1.4,10.9,4.5,21.3,9,30.9L122,248c11.2,23.5,29.2,43.1,51.5,56.2l14.2-24.2c9.2,5.4,19.3,9.4,30,11.7l-5.9,27.4
				c8.8,1.9,18,2.9,27.3,2.9c30.5,0,58.6-10.5,80.7-28.2l-17.4-21.9c8.4-6.7,15.8-14.7,21.7-23.8l23.4,15.4
				c13.4-20.4,21.3-44.9,21.3-71.1C368.8,186.8,368.5,181.4,367.8,176.1z M131.3,178.6c-3.1,0-5.6-2.5-5.6-5.6
				c0-3.1,2.5-5.6,5.6-5.6s5.6,2.5,5.6,5.6C136.9,176.1,134.4,178.6,131.3,178.6z M320.1,113.7c3.1,0,5.6,2.5,5.6,5.6
				c0,3.1-2.5,5.6-5.6,5.6c-3.1,0-5.6-2.5-5.6-5.6C314.5,116.2,317,113.7,320.1,113.7z M213.7,80.2c3.1,0,5.6,2.5,5.6,5.6
				c0,3.1-2.5,5.6-5.6,5.6c-3.1,0-5.6-2.5-5.6-5.6C208.1,82.7,210.6,80.2,213.7,80.2z M160,273.6c-3.1,0-5.6-2.5-5.6-5.6
				c0-3.1,2.5-5.6,5.6-5.6c3.1,0,5.6,2.5,5.6,5.6C165.6,271.1,163.1,273.6,160,273.6z M266,304.4c-3.1,0-5.6-2.5-5.6-5.6
				c0-3.1,2.5-5.6,5.6-5.6c3.1,0,5.6,2.5,5.6,5.6C271.6,301.9,269.1,304.4,266,304.4z M239.1,284.7c-51,0-92.4-41.4-92.4-92.4
				s41.4-92.4,92.4-92.4s92.4,41.4,92.4,92.4S290.1,284.7,239.1,284.7z M345.5,223.1c-3.1,0-5.6-2.5-5.6-5.6c0-3.1,2.5-5.6,5.6-5.6
				s5.6,2.5,5.6,5.6C351.1,220.6,348.6,223.1,345.5,223.1z"/>
		</g>
		<path class="st0" d="M158.1,77.8c12.5-9.5,26.6-17.1,41.8-22.2c-0.9-1-1.6-2.2-2-3.7c-1.1-4.2,0.5-8.2,3.7-9.1
			c3.1-0.8,6.6,1.9,7.7,6c0.4,1.4,0.3,2.7,0.2,3.9c11.5-3,23.7-4.6,36.1-4.6c3.7,0,7.3,0.2,11,0.5l-1.2-32.5c0-0.8-1-1.1-1.4-0.4
			c-1.3,1.9-3.5,4.6-6.3,6.5c-3.5,2.3-2.3,7,0,8.9c1.8,1.4,2.2,4,0.8,5.8c-0.9,1.2-2.4,2.3-4.5,2.9c-5.5,1.5-9.3-9.8-10.2-13.2
			c-0.1-0.5,0.2-0.9,0.7-0.9c1.4,0,4.2-0.4,5-2.9c1.1-3.1-11.6-14.1-16-19.2c-0.4-0.4-1.1-0.3-1.3,0.2c-1.2,2.8-4,10.2-2.4,16.2
			c2,7.5,2.6,19.3-1,21c-3.6,1.8-11.8-1.7-14.1-10.1l-0.9-3.4c-0.2-0.7,0.5-1.4,1.2-1.2c0.8,0.2,1.9,0.3,3.4-0.1
			c3.8-1,5.2-3.5,4.1-7.7c-1.1-4-15.2-11.1-20.9-14.6c-0.1,0-0.1-0.1-0.2-0.1c0,0.1-0.1,0.1-0.1,0.2c-3.2,5.8-11.9,19-10.8,23
			c1.1,4.1,3.5,5.6,7.4,4.6c1.5-0.4,2.4-1,3-1.7c0.5-0.5,1.4-0.3,1.6,0.4l0.9,3.4c2.2,8.4-3.1,15.5-7.1,15.8
			c-4,0.3-9.4-10.2-11.4-17.7c-1.6-6-7.7-11-10.1-12.8c-0.5-0.3-1.1-0.1-1.2,0.5c-1.2,6.6-6.8,22.5-4.3,24.6c1.9,1.7,4.5,0.7,5.8,0
			c0.4-0.2,0.9,0,1,0.5c0.8,3.4,3.2,15.1-2.3,16.6c-2.2,0.6-4,0.4-5.4-0.2c-2.1-0.8-3-3.3-2.2-5.4c1.1-2.8-0.2-7.5-4.4-7.7
			c-3.4-0.2-6.7-1.5-8.7-2.4c-0.7-0.3-1.4,0.4-1,1.1L158.1,77.8z M191.2,19.3c-0.8-2.9,0.3-5.6,2.4-6.2c2.1-0.6,4.4,1.3,5.2,4.2
			c0.8,2.9-0.3,5.6-2.4,6.2C194.2,24,191.9,22.2,191.2,19.3z"/>
	</g>
</g>
</svg>
