<?xml version="1.0" encoding="utf-8"?>
<!-- Generator: Adobe Illustrator 24.3.0, SVG Export Plug-In . SVG Version: 6.00 Build 0)  -->
<svg version="1.1" id="圖層_1" xmlns="http://www.w3.org/2000/svg" xmlns:xlink="http://www.w3.org/1999/xlink" x="0px" y="0px"
	 viewBox="0 0 227 78" style="enable-background:new 0 0 227 78;" xml:space="preserve">
<style type="text/css">
	.st0{fill-rule:evenodd;clip-rule:evenodd;fill:url(#Fill-1_1_);}
</style>
<desc>Created with Sketch.</desc>
<g id="Page-1">
	<g id="skrill-logo-web-1-rgb">
		
			<linearGradient id="Fill-1_1_" gradientUnits="userSpaceOnUse" x1="63.9621" y1="89.8573" x2="64.4843" y2="88.8573" gradientTransform="matrix(226.772 0 0 -77.456 -14449.4082 6961.584)">
			<stop  offset="0" style="stop-color:#6B195F"/>
			<stop  offset="1" style="stop-color:#4C255B"/>
		</linearGradient>
		<path id="Fill-1" class="st0" d="M162.9,19.2c5.1,0,9.3-4.2,9.3-9.3c0-5.1-4.2-9.3-9.3-9.3c-5.1,0-9.3,4.2-9.3,9.3
			C153.6,15,157.8,19.2,162.9,19.2L162.9,19.2z M91.6,24.2c-0.4,1.1-3.4,9.6-10.8,18.4V4.8L61.4,8.6v68.6h19.5V56
			c5.6,8.5,8.4,21.2,8.4,21.2h23.3c-2.3-9.6-12.4-27.3-12.4-27.3c9.1-11.5,13-23.7,13.7-25.8H91.6L91.6,24.2z M142.8,23.5
			c-17.4,0.6-26.3,8.4-26.3,23.9v29.8h19V52.9c0-9.3,1.2-13.3,12.3-13.7V23.7C146,23.3,142.8,23.5,142.8,23.5L142.8,23.5z
			 M28.7,31.7c-2.4-0.2-7.9-0.5-7.9-5.5c0-6,8-6,10.9-6c5.2,0,12,1.6,16.9,3c0,0,2.7,1,5,1.9l0.2,0.1V8.8l-0.3-0.1
			c-5.7-2-12.4-3.9-24.7-3.9C7.5,4.8,0,17.2,0,27.8C0,33.9,2.6,48.3,27,50c2.1,0.1,7.5,0.4,7.5,5.6c0,4.2-4.5,6.7-12,6.7
			c-8.3,0-16.3-2.1-21.2-4.1v16.9C8.6,77,16.9,78,26.5,78c20.8,0,30.1-11.7,30.1-23.4C56.6,41.5,46.2,32.9,28.7,31.7L28.7,31.7z
			 M153.5,77.2h18.9v-53h-18.9V77.2z M207.9,8.2v69.1h18.9V4.8L207.9,8.2L207.9,8.2z M180.3,8.2l18.9-3.4v72.4h-18.9V8.2L180.3,8.2z
			"/>
	</g>
</g>
</svg>
