<?xml version="1.0" standalone="no"?>
<!DOCTYPE svg PUBLIC "-//W3C//DTD SVG 1.1//EN" "http://www.w3.org/Graphics/SVG/1.1/DTD/svg11.dtd" >
<svg xmlns="http://www.w3.org/2000/svg">
<metadata>Generated by IcoMoon</metadata>
<defs>
<font id="icomoon" horiz-adv-x="1024">
<font-face units-per-em="1024" ascent="960" descent="-64" />
<missing-glyph horiz-adv-x="1024" />
<glyph unicode="&#x20;" horiz-adv-x="512" d="" />
<glyph unicode="&#xe900;" glyph-name="iconArrowL" d="M668.672 960h-21.504l-291.84-512 291.84-512h21.504l-291.84 512z" />
<glyph unicode="&#xe901;" glyph-name="iconArrowR" d="M355.328 960h21.504l291.84-512-291.84-512h-21.504l291.84 512z" />
<glyph unicode="&#xe902;" glyph-name="iconCross" d="M568.32 448l444.416 443.392c15.36 15.36 15.36 40.96 0 56.32s-40.96 15.36-56.32 0l-444.416-443.392-443.392 444.416c-15.36 15.36-40.96 15.36-56.32 0s-15.36-40.96 0-56.32l443.392-444.416-444.416-443.392c-15.36-15.36-15.36-40.96 0-56.32 8.192-8.192 18.432-11.264 28.672-11.264s20.48 4.096 28.672 11.264l443.392 443.392 443.392-443.392c8.192-8.192 18.432-11.264 28.672-11.264s20.48 4.096 28.672 11.264c15.36 15.36 15.36 40.96 0 56.32l-444.416 443.392z" />
<glyph unicode="&#xe903;" glyph-name="iconUser" d="M512 960c-148.48 0-270.336-120.832-270.336-270.336s121.856-269.312 270.336-269.312 270.336 120.832 270.336 270.336-121.856 269.312-270.336 269.312zM847.872 243.2c-73.728 75.776-172.032 116.736-275.456 116.736h-120.832c-104.448 0-201.728-40.96-275.456-116.736-73.728-74.752-113.664-173.056-113.664-277.504 0-16.384 13.312-29.696 29.696-29.696h839.68c16.384 0 29.696 13.312 29.696 29.696 0 104.448-39.936 202.752-113.664 277.504z" />
<glyph unicode="&#xe904;" glyph-name="iconLock" d="M902.144 43.52v348.16c0 52.224-36.864 95.232-86.016 105.472v158.72c0 167.936-136.192 304.128-304.128 304.128s-304.128-136.192-304.128-304.128v-157.696c-49.152-10.24-86.016-53.248-86.016-105.472v-348.16c0-59.392 48.128-107.52 107.52-107.52h564.224c60.416-1.024 108.544 47.104 108.544 106.496v0zM560.128 159.232v-106.496h-95.232v106.496c-28.672 16.384-48.128 47.104-48.128 82.944 0 53.248 43.008 95.232 95.232 95.232 53.248 0 95.232-43.008 95.232-95.232 0-34.816-19.456-65.536-47.104-82.944zM657.408 500.224h-290.816v155.648c0 79.872 65.536 145.408 145.408 145.408s145.408-65.536 145.408-145.408v-155.648z" />
<glyph unicode="&#xe905;" glyph-name="iconCheck" d="M901.12 822.784l-503.808-503.808-274.432 274.432-122.88-122.88 397.312-397.312 626.688 626.688-122.88 122.88z" />
<glyph unicode="&#xe906;" glyph-name="iconExclamation" d="M512 960c-282.624 0-512-229.376-512-512s229.376-512 512-512 512 229.376 512 512-229.376 512-512 512zM512 121.344c-39.936 0-67.584 30.72-67.584 70.656 0 40.96 28.672 70.656 67.584 70.656 40.96 0 67.584-29.696 67.584-70.656 0-39.936-26.624-70.656-67.584-70.656zM538.624 391.68c-10.24-34.816-41.984-35.84-53.248 0-12.288 40.96-56.32 195.584-56.32 295.936 0 133.12 165.888 133.12 165.888 0 0-101.376-46.080-260.096-56.32-295.936z" />
<glyph unicode="&#xe907;" glyph-name="iconMobile" d="M287.744 896.512h448.512v-768h-448.512v768zM224.256 832v-768c0-63.488 63.488-128 128-128h319.488c63.488 0 128 63.488 128 128v768c0 64.512-63.488 128-128 128h-319.488c-64.512 0-128-63.488-128-128zM480.256 32.256c0 17.408 14.336 31.744 31.744 31.744s31.744-14.336 31.744-31.744-14.336-31.744-31.744-31.744-31.744 14.336-31.744 31.744z" />
<glyph unicode="&#xe908;" glyph-name="iconComputer" d="M773.12 54.784h-41.984c-34.816 20.48-60.416 53.248-70.656 91.136h-296.96c-10.24-37.888-34.816-71.68-70.656-91.136h-41.984c-21.504 0-38.912-17.408-38.912-38.912s17.408-38.912 38.912-38.912h522.24c21.504 0 38.912 17.408 38.912 38.912s-17.408 38.912-38.912 38.912zM906.24 919.040h-788.48c-65.536 0-117.76-52.224-117.76-116.736v-417.792h1024v417.792c0 64.512-52.224 116.736-117.76 116.736zM651.264 626.176c0-18.432-15.36-33.792-33.792-33.792h-448.512c-18.432 0-33.792 15.36-33.792 33.792v0c0 18.432 15.36 33.792 33.792 33.792h447.488c19.456 1.024 34.816-14.336 34.816-33.792v0zM821.248 743.936h-652.288c-18.432 0-33.792 15.36-33.792 33.792s15.36 33.792 33.792 33.792h652.288c18.432 0 33.792-15.36 33.792-33.792s-14.336-33.792-33.792-33.792zM117.76 187.904h788.48c64.512 0 117.76 52.224 117.76 117.76h-1024c0-65.536 52.224-117.76 117.76-117.76z" />
<glyph unicode="&#xe909;" glyph-name="iconBank" d="M976.896 29.184h-930.816c-25.6 0-46.080-20.48-46.080-46.080s20.48-46.080 46.080-46.080h930.816c25.6 0 46.080 20.48 46.080 46.080 1.024 25.6-20.48 46.080-46.080 46.080zM104.448 150.016c-25.6 0-46.080-20.48-46.080-46.080s20.48-46.080 46.080-46.080h814.080c25.6 0 46.080 20.48 46.080 46.080s-20.48 46.080-46.080 46.080h-11.264v418.816h11.264c13.312 0 23.552 10.24 23.552 23.552s-10.24 23.552-23.552 23.552h-814.080c-13.312 0-23.552-10.24-23.552-23.552s10.24-23.552 23.552-23.552h11.264v-418.816h-11.264zM814.080 568.832v-418.816h-139.264v418.816h139.264zM581.632 568.832v-418.816h-139.264v418.816h139.264zM208.896 568.832h139.264v-418.816h-139.264v418.816zM46.080 656.896h930.816c0 0 0 0 0 0 25.6 0 46.080 20.48 46.080 46.080 0 20.48-13.312 37.888-31.744 44.032l-460.8 208.896c-12.288 5.12-25.6 5.12-37.888 0l-464.896-209.92c-20.48-9.216-30.72-30.72-26.624-52.224 5.12-21.504 23.552-36.864 45.056-36.864z" />
<glyph unicode="&#xe90a;" glyph-name="fa-heart" d="M943.104 814.592c-53.248 57.344-125.952 89.088-204.8 89.088-59.392 0-113.664-18.432-160.768-55.296-23.552-18.432-46.080-40.96-65.536-67.584-19.456 26.624-40.96 49.152-65.536 67.584-47.104 36.864-101.376 55.296-160.768 55.296-78.848 0-151.552-31.744-204.8-89.088-52.224-57.344-80.896-135.168-80.896-219.136 0-86.016 32.768-165.888 101.376-248.832 62.464-74.752 151.552-150.528 253.952-238.592 34.816-29.696 74.752-64.512 116.736-100.352 11.264-9.216 24.576-15.36 39.936-15.36 14.336 0 28.672 5.12 39.936 15.36 40.96 35.84 81.92 70.656 116.736 100.352 103.424 88.064 192.512 163.84 253.952 238.592 69.632 83.968 101.376 162.816 101.376 249.856 0 82.944-28.672 160.768-80.896 218.112z" />
<glyph unicode="&#xe90b;" glyph-name="fa-heart-o" d="M738.304 832c58.368 0 112.64-23.552 152.576-66.56 39.936-44.032 62.464-103.424 62.464-169.984 0-69.632-26.624-133.12-84.992-203.776-58.368-69.632-145.408-144.384-245.76-229.376l-2.048-1.024c-32.768-27.648-69.632-59.392-108.544-93.184-38.912 33.792-76.8 65.536-109.568 94.208-100.352 86.016-187.392 159.744-245.76 229.376-58.368 71.68-84.992 134.144-84.992 203.776 0 66.56 22.528 125.952 62.464 169.984 38.912 43.008 93.184 66.56 152.576 66.56 43.008 0 81.92-13.312 116.736-40.96 18.432-14.336 35.84-32.768 51.2-53.248l58.368-79.872 58.368 79.872c15.36 20.48 32.768 38.912 51.2 53.248 33.792 27.648 71.68 40.96 115.712 40.96zM738.304 903.68c-59.392 0-113.664-18.432-160.768-55.296-23.552-18.432-46.080-40.96-65.536-67.584-19.456 26.624-40.96 49.152-65.536 67.584-47.104 36.864-101.376 55.296-160.768 55.296-78.848 0-151.552-31.744-204.8-89.088-52.224-57.344-80.896-135.168-80.896-219.136 0-86.016 32.768-165.888 101.376-248.832 62.464-74.752 151.552-150.528 253.952-238.592 34.816-29.696 74.752-64.512 116.736-100.352 11.264-9.216 24.576-15.36 39.936-15.36 14.336 0 28.672 5.12 39.936 15.36 40.96 35.84 81.92 70.656 116.736 100.352 103.424 88.064 192.512 163.84 253.952 238.592 69.632 83.968 101.376 162.816 101.376 249.856 0 83.968-28.672 161.792-80.896 218.112-53.248 57.344-125.952 89.088-204.8 89.088v0z" />
<glyph unicode="&#xe90c;" glyph-name="iconMoney" d="M598.016 56.832h-36.864v-120.832h-147.456v120.832h-198.656v147.456h382.976c48.128 0 88.064 39.936 88.064 88.064s-39.936 88.064-88.064 88.064h-178.176c-125.952 0-229.376 102.4-229.376 229.376 0 123.904 99.328 225.28 222.208 229.376v120.832h147.456v-120.832h159.744v-147.456h-300.032c-45.056 0-81.92-36.864-81.92-81.92s36.864-81.92 81.92-81.92h178.176c130.048 0 235.52-105.472 235.52-235.52s-105.472-235.52-235.52-235.52v0z" />
<glyph unicode="&#xe90d;" glyph-name="iconTime" d="M512 960c-282.624 0-512-229.376-512-512s229.376-512 512-512c282.624 0 512 229.376 512 512s-229.376 512-512 512zM548.864 10.752v118.784c0 20.48-16.384 36.864-36.864 36.864s-36.864-16.384-36.864-36.864v-118.784c-211.968 18.432-381.952 188.416-400.384 400.384h118.784c20.48 0 36.864 16.384 36.864 36.864s-16.384 36.864-36.864 36.864h-118.784c18.432 211.968 188.416 381.952 400.384 400.384v-118.784c0-20.48 16.384-36.864 36.864-36.864s36.864 16.384 36.864 36.864v118.784c212.992-17.408 382.976-187.392 400.384-400.384h-118.784c-20.48 0-36.864-16.384-36.864-36.864s16.384-36.864 36.864-36.864h118.784c-18.432-211.968-188.416-381.952-400.384-400.384zM696.32 698.88c-16.384 12.288-38.912 8.192-51.2-7.168l-155.648-210.944h-139.264c-20.48 0-36.864-16.384-36.864-36.864s16.384-36.864 36.864-36.864h157.696c11.264 0 22.528 5.12 29.696 15.36l166.912 225.28c11.264 16.384 8.192 38.912-8.192 51.2z" />
<glyph unicode="&#xe90e;" glyph-name="iconReload" d="M892.928 628.224c-9.216 15.36-29.696 18.432-43.008 8.192l-97.28-72.704c-12.288-9.216-15.36-25.6-8.192-38.912 24.576-41.984 36.864-87.040 36.864-134.144 0-148.48-120.832-274.432-270.336-274.432s-269.312 124.928-269.312 273.408c0 138.24 105.472 252.928 239.616 268.288v-88.064c0-24.576 28.672-38.912 48.128-23.552l239.616 180.224c16.384 12.288 16.384 35.84 0 48.128l-238.592 179.2c-19.456 14.336-48.128 1.024-48.128-23.552v-91.136c-234.496-15.36-419.84-210.944-419.84-448.512 0-248.832 201.728-454.656 449.536-454.656s449.536 205.824 449.536 453.632c0 83.968-23.552 166.912-68.608 238.592z" />
<glyph unicode="&#xe90f;" glyph-name="iconARup" d="M723.968-64v433.152h227.328l-439.296 590.848-439.296-590.848h227.328v-433.152z" />
<glyph unicode="&#xe910;" glyph-name="iconARdown" d="M300.032 960v-433.152h-227.328l439.296-590.848 439.296 590.848h-227.328v433.152z" />
<glyph unicode="&#xe911;" glyph-name="iconMessage" d="M1021.952 623.104l-336.896 336.896-320.512-320.512h-362.496v-377.856h318.464v-325.632h365.568v352.256l335.872 334.848zM687.104 587.264h223.232l-223.232-223.232v223.232zM687.104 640.512v242.688l242.688-242.688h-242.688zM633.856 833.024v-192.512h-192.512l192.512 192.512zM55.296 314.88v272.384h265.216v-272.384h-265.216zM374.784-10.752v598.016h259.072v-598.016h-259.072z" />
<glyph unicode="&#xe912;" glyph-name="iconInformation" d="M710.656-11.776c-43.008-17.408-76.8-29.696-102.4-38.912s-55.296-13.312-89.088-13.312c-52.224 0-92.16 12.288-120.832 37.888s-43.008 57.344-43.008 96.256c0 15.36 1.024 30.72 3.072 46.080s6.144 33.792 10.24 53.248l53.248 189.44c5.12 18.432 9.216 35.84 12.288 51.2 3.072 16.384 5.12 30.72 5.12 45.056 0 24.576-5.12 40.96-15.36 50.176s-28.672 14.336-57.344 14.336c-14.336 0-27.648-2.048-43.008-6.144-14.336-4.096-26.624-8.192-36.864-12.288l14.336 58.368c34.816 14.336 68.608 26.624 101.376 36.864 31.744 10.24 62.464 15.36 91.136 15.36 51.2 0 91.136-12.288 119.808-37.888 27.648-24.576 41.984-57.344 41.984-97.28 0-8.192-1.024-22.528-3.072-44.032-2.048-20.48-5.12-39.936-10.24-57.344l-53.248-189.44c-4.096-15.36-8.192-32.768-12.288-52.224-3.072-19.456-5.12-33.792-5.12-44.032 0-25.6 5.12-41.984 16.384-51.2s30.72-13.312 58.368-13.312c13.312 0 27.648 2.048 44.032 7.168 16.384 4.096 28.672 8.192 35.84 12.288l-15.36-56.32zM700.416 756.224c-24.576-23.552-55.296-34.816-90.112-34.816s-65.536 11.264-90.112 34.816c-24.576 23.552-37.888 51.2-37.888 83.968s12.288 61.44 37.888 83.968c25.6 24.576 55.296 35.84 90.112 35.84s65.536-11.264 90.112-34.816c24.576-23.552 37.888-51.2 37.888-83.968 0-33.792-12.288-61.44-37.888-84.992z" />
<glyph unicode="&#xe913;" glyph-name="iconReloadA" d="M987.136 818.688c-21.504 2.048-40.96-14.336-43.008-35.84l-5.12-58.368c-90.112 141.312-245.76 235.52-427.008 235.52-194.56 0-365.568-110.592-451.584-277.504-10.24-19.456-2.048-44.032 17.408-54.272s44.032-2.048 54.272 17.408c71.68 141.312 217.088 234.496 379.904 234.496 148.48 0 282.624-77.824 359.424-198.656l-57.344 40.96c-18.432 13.312-43.008 8.192-55.296-9.216-13.312-18.432-8.192-43.008 9.216-55.296l173.056-123.904c25.6-18.432 60.416-1.024 63.488 28.672l19.456 212.992c2.048 21.504-14.336 40.96-36.864 43.008zM946.176 267.776c-19.456 10.24-44.032 2.048-54.272-17.408-71.68-141.312-217.088-234.496-379.904-234.496-148.48 0-282.624 77.824-359.424 198.656l57.344-40.96c18.432-13.312 43.008-8.192 55.296 9.216 13.312 18.432 8.192 43.008-9.216 55.296l-173.056 124.928c-24.576 17.408-60.416 2.048-63.488-28.672l-19.456-214.016c-2.048-21.504 14.336-40.96 35.84-43.008 22.528-2.048 40.96 14.336 43.008 35.84l6.144 58.368c90.112-141.312 245.76-235.52 427.008-235.52 194.56 0 365.568 110.592 451.584 277.504 9.216 19.456 2.048 44.032-17.408 54.272z" />
<glyph unicode="&#xe914;" glyph-name="iconARup01" d="M512 802.304l-512-708.608h1024z" />
<glyph unicode="&#xe915;" glyph-name="iconARdown01" d="M512 93.696l512 708.608h-1024z" />
<glyph unicode="&#xe916;" glyph-name="iconPlus" d="M1024 573.952h-386.048v386.048h-251.904v-386.048h-386.048v-251.904h386.048v-386.048h251.904v386.048h386.048z" />
<glyph unicode="&#xe917;" glyph-name="iconLock1" d="M799.744 576h-31.744v128c0 141.312-114.688 256-256 256s-256-114.688-256-256v-128h-31.744c-53.248 0-96.256-43.008-96.256-96.256v-448.512c0-53.248 43.008-96.256 96.256-96.256h575.488c53.248 0 96.256 43.008 96.256 96.256v448.512c0 53.248-43.008 96.256-96.256 96.256zM319.488 704c0 105.472 86.016 192.512 192.512 192.512 105.472 0 192.512-86.016 192.512-192.512v-128h-385.024v128zM831.488 32.256c0-17.408-14.336-31.744-31.744-31.744h-575.488c-17.408 0-31.744 14.336-31.744 31.744v447.488c0 17.408 14.336 31.744 31.744 31.744h575.488c17.408 0 31.744-14.336 31.744-31.744v-447.488zM512 404.992c-47.104 0-84.992-37.888-84.992-84.992 0-35.84 22.528-66.56 53.248-78.848v-102.4c0-17.408 14.336-31.744 31.744-31.744s31.744 14.336 31.744 31.744v102.4c31.744 12.288 53.248 43.008 53.248 78.848 0 47.104-37.888 84.992-84.992 84.992zM512 341.504c11.264 0 21.504-9.216 21.504-21.504 0-11.264-9.216-21.504-21.504-21.504-11.264 0-21.504 9.216-21.504 21.504s10.24 21.504 21.504 21.504z" />
<glyph unicode="&#xe918;" glyph-name="iconPlay" d="M512 960c-282.624 0-512-229.376-512-512s229.376-512 512-512 512 229.376 512 512-229.376 512-512 512zM750.592 398.848l-363.52-208.896c-32.768-18.432-73.728 5.12-73.728 43.008v430.080c0 37.888 40.96 61.44 73.728 43.008l363.52-221.184c33.792-18.432 33.792-67.584 0-86.016z" />
<glyph unicode="&#xe919;" glyph-name="iconGo" d="M513.024 403.968l-350.208-349.184c-24.576-24.576-63.488-24.576-87.040 0l-58.368 58.368c-24.576 24.576-24.576 63.488 0 87.040l248.832 247.808-247.808 247.808c-24.576 24.576-24.576 63.488 0 87.040l57.344 58.368c24.576 24.576 63.488 24.576 87.040 0l349.184-349.184c24.576-24.576 24.576-63.488 1.024-88.064zM1005.568 492.032l-349.184 349.184c-24.576 24.576-63.488 24.576-87.040 0l-58.368-58.368c-24.576-24.576-24.576-63.488 0-87.040l247.808-247.808-247.808-247.808c-24.576-24.576-24.576-63.488 0-87.040l58.368-58.368c24.576-24.576 63.488-24.576 87.040 0l349.184 349.184c24.576 24.576 24.576 63.488 0 88.064z" />
<glyph unicode="&#xe91a;" glyph-name="iconStar" d="M456.704 903.68l-124.928-252.928-279.552-40.96c-50.176-7.168-70.656-68.608-33.792-104.448l202.752-197.632-48.128-278.528c-8.192-50.176 44.032-88.064 89.088-64.512l249.856 132.096 249.856-131.072c44.032-23.552 97.28 14.336 89.088 64.512l-48.128 278.528 202.752 197.632c36.864 35.84 16.384 97.28-33.792 104.448l-279.552 40.96-124.928 251.904c-22.528 45.056-88.064 46.080-110.592 0z" />
<glyph unicode="&#xe91b;" glyph-name="iconARupA" d="M551.936 741.888l455.68-455.68c21.504-21.504 21.504-57.344 0-79.872l-53.248-53.248c-21.504-21.504-57.344-21.504-79.872 0l-362.496 361.472-362.496-360.448c-21.504-21.504-57.344-21.504-79.872 0l-53.248 53.248c-21.504 21.504-21.504 57.344 0 79.872l455.68 455.68c22.528 21.504 57.344 21.504 79.872-1.024z" />
<glyph unicode="&#xe91c;" glyph-name="iconARdownA" d="M472.064 154.112l-455.68 455.68c-21.504 21.504-21.504 57.344 0 79.872l53.248 53.248c21.504 21.504 57.344 21.504 79.872 0l362.496-361.472 362.496 361.472c21.504 21.504 57.344 21.504 79.872 0l53.248-53.248c21.504-21.504 21.504-57.344 0-79.872l-455.68-455.68c-22.528-22.528-57.344-22.528-79.872 0z" />
<glyph unicode="&#xe91d;" glyph-name="iconLive" d="M546.816 800.256c-32.768 0-60.416 26.624-60.416 60.416 0 32.768 26.624 60.416 60.416 60.416 32.768 0 60.416-26.624 60.416-60.416s-27.648-60.416-60.416-60.416zM802.816 755.2c-9.216 5.12-19.456 6.144-29.696 1.024l-46.080-22.528v-166.912l46.080-23.552c4.096-2.048 9.216-3.072 13.312-3.072 5.12 0 11.264 1.024 15.36 4.096 9.216 5.12 14.336 15.36 14.336 25.6v159.744c1.024 11.264-4.096 20.48-13.312 25.6zM640 784.896c-21.504-27.648-55.296-45.056-93.184-45.056-38.912 0-73.728 18.432-95.232 47.104-25.6-28.672-63.488-47.104-104.448-47.104-43.008 0-80.896 19.456-106.496 49.152-19.456-12.288-32.768-34.816-32.768-59.392v-159.744c0-38.912 31.744-69.632 69.632-69.632h319.488c38.912 0 69.632 31.744 69.632 69.632v159.744c0 22.528-10.24 41.984-26.624 55.296zM347.136 800.256c-44.032 0-79.872 35.84-79.872 79.872s35.84 79.872 79.872 79.872 79.872-35.84 79.872-79.872-35.84-79.872-79.872-79.872zM891.904 376.32h-759.808c-50.176 0-90.112-40.96-90.112-90.112v-260.096c0-49.152 39.936-90.112 90.112-90.112h759.808c49.152 0 90.112 39.936 90.112 90.112v260.096c0 49.152-39.936 90.112-90.112 90.112zM269.312 26.112c-22.528 0-38.912 0-49.152 0-22.528 0-23.552 0-25.6 1.024-14.336 2.048-24.576 15.36-24.576 29.696v198.656c0 16.384 13.312 29.696 29.696 29.696s29.696-13.312 29.696-29.696v-169.984c12.288 0 26.624 0 39.936 0v0c16.384 0 29.696-13.312 29.696-29.696s-13.312-29.696-29.696-29.696zM408.576 55.808c0-16.384-13.312-29.696-29.696-29.696s-29.696 13.312-29.696 29.696v199.68c0 16.384 13.312 29.696 29.696 29.696s29.696-13.312 29.696-29.696v-199.68zM659.456 246.272l-65.536-196.608c0 0 0 0 0 0-5.12-14.336-17.408-23.552-32.768-23.552v0c-14.336 0-27.648 9.216-32.768 22.528 0 0 0 0 0 0l-67.584 197.632c-5.12 15.36 3.072 32.768 18.432 37.888s32.768-3.072 37.888-18.432l44.032-125.952 41.984 124.928c5.12 15.36 22.528 24.576 37.888 19.456s23.552-22.528 18.432-37.888zM819.2 185.856c16.384 0 29.696-13.312 29.696-29.696s-13.312-29.696-29.696-29.696h-48.128v-39.936h54.272c16.384 0 29.696-13.312 29.696-29.696s-13.312-29.696-29.696-29.696h-83.968c-16.384 0-29.696 13.312-29.696 29.696v198.656c0 16.384 13.312 29.696 29.696 29.696h83.968c16.384 0 29.696-13.312 29.696-29.696s-13.312-29.696-29.696-29.696h-54.272v-39.936h48.128z" />
<glyph unicode="&#xe91e;" glyph-name="iconJump" d="M918.528 960h-813.056c-34.816 0-62.464-28.672-62.464-63.488v-424.96c0-34.816 28.672-63.488 63.488-63.488h812.032c34.816 0 63.488 28.672 63.488 63.488v424.96c-1.024 34.816-28.672 63.488-63.488 63.488zM397.312 520.704c-1.024 0-2.048 0-3.072 0-8.192 0-16.384 6.144-17.408 14.336-8.192 50.176-34.816 95.232-73.728 129.024s-89.088 52.224-141.312 52.224c-10.24 0-17.408 8.192-17.408 17.408 0 10.24 8.192 17.408 17.408 17.408 60.416 0 117.76-21.504 163.84-60.416 45.056-38.912 75.776-92.16 84.992-149.504 3.072-10.24-3.072-19.456-13.312-20.48zM620.544 630.272c-26.624 0-51.2-8.192-73.728-22.528-26.624-17.408-45.056-44.032-53.248-74.752-2.048-7.168-9.216-13.312-16.384-13.312-2.048 0-3.072 0-5.12 1.024-9.216 3.072-15.36 12.288-12.288 21.504 10.24 37.888 34.816 71.68 67.584 94.208 27.648 18.432 59.392 28.672 93.184 28.672v0c10.24 0 17.408-8.192 17.408-17.408s-7.168-17.408-17.408-17.408zM620.544 704c-64.512 0-125.952-30.72-164.864-82.944-8.192-10.24-24.576-9.216-29.696 3.072-22.528 48.128-59.392 90.112-105.472 119.808-47.104 30.72-101.376 46.080-157.696 46.080-10.24 0-17.408 8.192-17.408 17.408 0 10.24 8.192 17.408 17.408 17.408 62.464 0 123.904-17.408 176.128-52.224 44.032-27.648 79.872-65.536 105.472-110.592 45.056 48.128 109.568 76.8 176.128 76.8v0c10.24 0 17.408-8.192 17.408-17.408s-7.168-17.408-17.408-17.408zM778.24 621.056c-45.056 0-81.92 36.864-81.92 81.92s36.864 81.92 81.92 81.92 81.92-36.864 81.92-81.92c0-46.080-36.864-81.92-81.92-81.92zM929.792 235.008h-111.616c-2.048 0-3.072-6.144-3.072-14.336v-41.984c0-8.192 1.024-14.336 3.072-14.336h110.592c2.048 0 3.072 6.144 3.072 14.336v41.984c1.024 8.192-1.024 14.336-2.048 14.336zM254.976 235.008h-149.504c-8.192 0-14.336-6.144-14.336-14.336v-44.032c0-8.192 6.144-14.336 14.336-14.336h149.504c8.192 0 14.336 6.144 14.336 14.336v44.032c0 8.192-7.168 14.336-14.336 14.336zM926.72 92.672h-194.56c-3.072 0-5.12-6.144-5.12-14.336v-41.984c0-8.192 2.048-14.336 5.12-14.336h194.56c3.072 0 5.12 6.144 5.12 14.336v41.984c1.024 7.168-2.048 14.336-5.12 14.336zM681.984 92.672h-116.736v70.656h197.632c8.192 0 14.336 6.144 14.336 14.336v41.984c0 8.192-6.144 14.336-14.336 14.336h-197.632v53.248l21.504 17.408c3.072 2.048 4.096 6.144 4.096 9.216v55.296c0 7.168-5.12 12.288-12.288 12.288h-59.392c-7.168 0-12.288-5.12-12.288-12.288v-54.272c0-4.096 2.048-7.168 4.096-9.216l21.504-18.432c0 0 1.024-1.024 2.048-1.024v-51.2h-163.84c-8.192 0-14.336-6.144-14.336-14.336v-41.984c0-8.192 6.144-14.336 14.336-14.336h163.84v-70.656h-163.84c-8.192 0-14.336-6.144-14.336-14.336v-41.984c0-8.192 6.144-14.336 14.336-14.336h163.84v-70.656c0-8.192 6.144-14.336 14.336-14.336h2.048c8.192 0 14.336 6.144 14.336 14.336v70.656h115.712c8.192 0 14.336 6.144 14.336 14.336v41.984c1.024 6.144-5.12 13.312-13.312 13.312zM254.976 92.672h-149.504c-8.192 0-14.336-6.144-14.336-14.336v-44.032c0-8.192 6.144-14.336 14.336-14.336h149.504c8.192 0 14.336 6.144 14.336 14.336v44.032c0 8.192-7.168 14.336-14.336 14.336z" />
<glyph unicode="&#xe91f;" glyph-name="iconARleftA" d="M218.112 487.936l455.68 455.68c21.504 21.504 57.344 21.504 79.872 0l53.248-53.248c21.504-21.504 21.504-57.344 0-79.872l-361.472-362.496 361.472-362.496c21.504-21.504 21.504-57.344 0-79.872l-53.248-53.248c-21.504-21.504-57.344-21.504-79.872 0l-455.68 455.68c-22.528 22.528-22.528 57.344 0 79.872z" />
<glyph unicode="&#xe920;" glyph-name="fa-star" d="M237.568 305.664l-54.272-331.776c-4.096-26.624 23.552-46.080 47.104-32.768l281.6 155.648 281.6-155.648c23.552-13.312 51.2 6.144 47.104 32.768l-54.272 331.776 228.352 234.496c18.432 18.432 8.192 50.176-18.432 54.272l-314.368 48.128-141.312 300.032c-10.24 22.528-47.104 22.528-58.368 0l-140.288-301.056-314.368-48.128c-25.6-4.096-35.84-35.84-18.432-54.272l228.352-233.472z" />
<glyph unicode="&#xe921;" glyph-name="fa-star-o" d="M547.84 911.872v0 0zM512 835.072l105.472-223.232c10.24-21.504 30.72-36.864 54.272-39.936l238.592-36.864-175.104-179.2c-16.384-16.384-23.552-38.912-19.456-61.44l40.96-250.88-209.92 115.712c-11.264 6.144-22.528 9.216-34.816 9.216s-23.552-3.072-34.816-9.216l-209.92-115.712 40.96 250.88c4.096 22.528-3.072 45.056-19.456 61.44l-174.080 179.2 238.592 35.84c23.552 4.096 44.032 18.432 54.272 39.936l104.448 224.256zM512 958.976c-12.288 0-23.552-5.12-28.672-16.384l-141.312-301.056-314.368-48.128c-25.6-4.096-35.84-35.84-18.432-54.272l228.352-234.496-54.272-331.776c-3.072-20.48 13.312-36.864 31.744-36.864 5.12 0 10.24 1.024 15.36 4.096l281.6 156.672 281.6-155.648c5.12-3.072 10.24-4.096 15.36-4.096 18.432 0 34.816 16.384 31.744 36.864l-54.272 331.776 228.352 234.496c18.432 18.432 8.192 50.176-18.432 54.272l-314.368 48.128-141.312 300.032c-5.12 11.264-16.384 16.384-28.672 16.384v0z" />
<glyph unicode="&#xe922;" glyph-name="iconPorkA" d="M902.144 591.36l-390.144 368.64-390.144-368.64c-63.488-53.248-103.424-134.144-103.424-223.232 0-161.792 131.072-293.888 293.888-293.888 67.584 0 130.048 23.552 180.224 61.44-14.336-55.296-43.008-105.472-83.968-145.408l-55.296-54.272 19.456 5.12c91.136 25.6 188.416 25.6 279.552 0l19.456-5.12-55.296 54.272c-40.96 39.936-69.632 90.112-83.968 145.408 50.176-38.912 112.64-61.44 180.224-61.44 161.792 0 293.888 131.072 293.888 293.888-1.024 89.088-40.96 169.984-104.448 223.232z" />
<glyph unicode="&#xe923;" glyph-name="iconPorkB" d="M512 960v0c123.904-190.464 266.24-362.496 423.936-512-157.696-149.504-300.032-321.536-423.936-512-123.904 190.464-266.24 362.496-423.936 512 157.696 149.504 300.032 321.536 423.936 512z" />
<glyph unicode="&#xe924;" glyph-name="iconPorkC" d="M1024 602.624c0 167.936-136.192 305.152-305.152 305.152-79.872 0-152.576-30.72-206.848-81.92-54.272 50.176-126.976 81.92-206.848 81.92-168.96 0-305.152-136.192-305.152-305.152 0-93.184 41.984-176.128 107.52-232.448l404.48-381.952 404.48 381.952c65.536 56.32 107.52 139.264 107.52 232.448z" />
<glyph unicode="&#xe925;" glyph-name="iconPorkD" d="M740.352 576c0 0-1.024 0 0 0 19.456 36.864 30.72 78.848 30.72 124.928 0 143.36-115.712 259.072-259.072 259.072s-259.072-115.712-259.072-259.072c0-45.056 11.264-88.064 31.744-124.928 0 0-1.024 0-1.024 0-143.36 0-259.072-115.712-259.072-259.072s115.712-259.072 259.072-259.072c93.184 0 174.080 49.152 220.16 121.856l-11.264-44.032c-14.336-55.296-43.008-105.472-83.968-146.432l-55.296-54.272 19.456 5.12c91.136 25.6 188.416 25.6 279.552 0l19.456-5.12-55.296 54.272c-40.96 39.936-69.632 90.112-83.968 146.432l-11.264 44.032c46.080-73.728 126.976-121.856 220.16-121.856 143.36 0 259.072 115.712 259.072 259.072s-116.736 259.072-260.096 259.072z" />
<glyph unicode="&#xe926;" glyph-name="iconCalendar" d="M302.080 718.336h421.888v119.808h60.416v92.16c0 16.384-13.312 29.696-29.696 29.696s-29.696-13.312-29.696-29.696v-92.16h-422.912v92.16c0 16.384-13.312 29.696-29.696 29.696s-29.696-13.312-29.696-29.696v-92.16h60.416v-119.808zM874.496 236.032c82.944 0 149.504 67.584 149.504 149.504v422.912c0 16.384-13.312 29.696-29.696 29.696h-209.92v-119.808h90.112c16.384 0 29.696-13.312 29.696-29.696s-13.312-29.696-29.696-29.696h-722.944c-16.384 0-29.696 13.312-29.696 29.696s13.312 29.696 29.696 29.696h90.112v119.808h-211.968c-16.384 0-29.696-13.312-29.696-29.696v-841.728c0-16.384 13.312-29.696 29.696-29.696h543.744c82.944 0 149.504 67.584 149.504 149.504v119.808c0 16.384 13.312 29.696 29.696 29.696h121.856zM694.272 536.064h119.808c16.384 0 29.696-13.312 29.696-29.696s-13.312-29.696-29.696-29.696h-119.808c-16.384 0-29.696 13.312-29.696 29.696s12.288 29.696 29.696 29.696zM331.776 116.224h-119.808c-16.384 0-29.696 13.312-29.696 29.696s13.312 29.696 29.696 29.696h119.808c16.384 0 29.696-13.312 29.696-29.696 1.024-16.384-12.288-29.696-29.696-29.696zM331.776 236.032h-119.808c-16.384 0-29.696 13.312-29.696 29.696s13.312 29.696 29.696 29.696h119.808c16.384 0 29.696-13.312 29.696-29.696 1.024-16.384-12.288-29.696-29.696-29.696zM331.776 355.84h-119.808c-16.384 0-29.696 13.312-29.696 29.696s13.312 29.696 29.696 29.696h119.808c16.384 0 29.696-13.312 29.696-29.696 1.024-16.384-12.288-29.696-29.696-29.696zM331.776 475.648h-119.808c-16.384 0-29.696 13.312-29.696 29.696s13.312 29.696 29.696 29.696h119.808c16.384 0 29.696-13.312 29.696-29.696s-12.288-29.696-29.696-29.696zM574.464 236.032h-122.88c-16.384 0-29.696 13.312-29.696 29.696s13.312 29.696 29.696 29.696h121.856c16.384 0 29.696-13.312 29.696-29.696 1.024-16.384-12.288-29.696-28.672-29.696zM574.464 355.84h-122.88c-16.384 0-29.696 13.312-29.696 29.696s13.312 29.696 29.696 29.696h121.856c16.384 0 29.696-13.312 29.696-29.696 1.024-16.384-12.288-29.696-28.672-29.696zM574.464 475.648h-122.88c-16.384 0-29.696 13.312-29.696 29.696s13.312 29.696 29.696 29.696h121.856c16.384 0 29.696-13.312 29.696-29.696s-12.288-29.696-28.672-29.696zM694.272 355.84c-16.384 0-29.696 13.312-29.696 29.696s13.312 29.696 29.696 29.696h119.808c16.384 0 29.696-13.312 29.696-29.696s-13.312-29.696-29.696-29.696h-119.808zM813.056-64h180.224c16.384 0 29.696 13.312 29.696 29.696v181.248c-47.104-90.112-119.808-162.816-209.92-210.944zM988.16 210.432c-32.768-21.504-71.68-33.792-114.688-33.792h-90.112v-90.112c0-41.984-12.288-80.896-33.792-114.688 107.52 45.056 193.536 131.072 238.592 238.592z" />
<glyph unicode="&#xe927;" glyph-name="iconSand" d="M673.792 554.496c67.584 61.44 159.744 145.408 167.936 346.112h60.416v59.392h-780.288v-60.416h60.416c8.192-199.68 100.352-283.648 167.936-346.112 45.056-41.984 71.68-66.56 71.68-106.496s-25.6-64.512-71.68-106.496c-67.584-61.44-159.744-145.408-167.936-346.112h-60.416v-60.416h780.288v60.416h-60.416c-8.192 199.68-100.352 283.648-167.936 346.112-45.056 41.984-71.68 66.56-71.68 106.496s25.6 65.536 71.68 107.52zM482.304 222.72c-9.216-2.048-18.432-5.12-27.648-8.192l-183.296-75.776c29.696 76.8 78.848 120.832 119.808 158.72 47.104 43.008 91.136 82.944 91.136 150.528v-225.28zM632.832 297.472c41.984-37.888 90.112-81.92 119.808-158.72l-183.296 75.776c-9.216 4.096-18.432 6.144-27.648 8.192v225.28c0-67.584 44.032-108.544 91.136-150.528zM270.336 760.32c-14.336 37.888-24.576 82.944-27.648 140.288h538.624c-3.072-56.32-12.288-102.4-27.648-140.288h-483.328z" />
<glyph unicode="&#xe928;" glyph-name="iconTrash" d="M128 32.256c0-53.248 43.008-96.256 96.256-96.256h575.488c53.248 0 96.256 43.008 96.256 96.256v671.744h-768v-671.744zM671.744 544.256c0 17.408 14.336 31.744 31.744 31.744s31.744-14.336 31.744-31.744v-447.488c0-17.408-14.336-31.744-31.744-31.744s-31.744 14.336-31.744 31.744v447.488zM480.256 544.256c0 17.408 14.336 31.744 31.744 31.744s31.744-14.336 31.744-31.744v-447.488c0-17.408-14.336-31.744-31.744-31.744s-31.744 14.336-31.744 31.744v447.488zM287.744 544.256c0 17.408 14.336 31.744 31.744 31.744s31.744-14.336 31.744-31.744v-447.488c0-17.408-14.336-31.744-31.744-31.744s-31.744 14.336-31.744 31.744v447.488zM927.744 895.488h-239.616l-18.432 37.888c-8.192 16.384-25.6 26.624-43.008 26.624h-229.376c-18.432 0-34.816-10.24-43.008-26.624l-18.432-37.888h-239.616c-17.408 0-31.744-14.336-31.744-31.744v-63.488c0-17.408 14.336-31.744 31.744-31.744h831.488c17.408 0 31.744 14.336 31.744 31.744v63.488c0 18.432-13.312 31.744-31.744 31.744z" />
<glyph unicode="&#xe929;" glyph-name="iconARupB" d="M420.864 653.824v-690.176c0-15.36 12.288-27.648 27.648-27.648h128c15.36 0 27.648 12.288 27.648 27.648v690.176h105.472c49.152 0 73.728 59.392 38.912 93.184l-197.632 196.608c-21.504 21.504-56.32 21.504-77.824 0l-196.608-196.608c-34.816-34.816-10.24-93.184 38.912-93.184h105.472z" />
<glyph unicode="&#xe92a;" glyph-name="iconARdownB" d="M603.136 242.176v690.176c0 15.36-12.288 27.648-27.648 27.648h-126.976c-15.36 0-27.648-12.288-27.648-27.648v-690.176h-105.472c-49.152 0-73.728-59.392-38.912-93.184l196.608-196.608c21.504-21.504 56.32-21.504 77.824 0l196.608 196.608c34.816 34.816 10.24 93.184-38.912 93.184h-105.472z" />
<glyph unicode="&#xe92b;" glyph-name="iconLockB" d="M972.8 396.8h-51.2v128c0 70.656-57.344 128-128 128s-128-57.344-128-128v-128h-51.2c-28.672 0-51.2-22.528-51.2-51.2v-256c0-28.672 22.528-51.2 51.2-51.2h358.4c28.672 0 51.2 22.528 51.2 51.2v256c0 28.672-22.528 51.2-51.2 51.2zM793.6 166.4c-28.672 0-51.2 22.528-51.2 51.2s22.528 51.2 51.2 51.2c28.672 0 51.2-22.528 51.2-51.2s-22.528-51.2-51.2-51.2zM844.8 396.8h-102.4v128c0 28.672 22.528 51.2 51.2 51.2s51.2-22.528 51.2-51.2v-128zM168.96 424.448h-168.96c5.12-92.16 40.96-179.2 103.424-247.808l118.784 117.76c-29.696 35.84-48.128 80.896-53.248 130.048zM168.96 471.552c5.12 49.152 24.576 93.184 53.248 129.024l-118.784 119.808c-62.464-69.632-98.304-155.648-103.424-248.832h168.96zM433.152 857.6v-168.96c49.152-5.12 93.184-24.576 129.024-53.248l118.784 118.784c-68.608 62.464-154.624 98.304-247.808 103.424zM386.048 207.36c-49.152 5.12-93.184 24.576-129.024 53.248l-119.808-118.784c69.632-61.44 155.648-98.304 247.808-103.424v168.96zM256 635.392c35.84 29.696 80.896 49.152 129.024 53.248v168.96c-92.16-5.12-179.2-40.96-247.808-103.424l118.784-118.784zM761.856 652.8c1.024 0 2.048 0 3.072 0-14.336 23.552-30.72 46.080-49.152 67.584l-118.784-118.784c15.36-18.432 28.672-39.936 37.888-63.488 6.144 64.512 60.416 114.688 126.976 114.688zM531.456 89.6v149.504c-29.696-17.408-62.464-28.672-97.28-31.744v-168.96c36.864 2.048 72.704 9.216 107.52 20.48-7.168 9.216-10.24 19.456-10.24 30.72zM531.456 345.6c0 28.672 44.032 72.704 72.704 72.704 0 17.408 0 12.288 0 29.696 0 106.496-87.040 193.536-193.536 193.536s-194.56-87.040-194.56-193.536 87.040-193.536 193.536-193.536c46.080 0 88.064 16.384 121.856 43.008v48.128zM434.176 343.552v-5.12c0-14.336-11.264-24.576-23.552-24.576-13.312 0-23.552 11.264-23.552 23.552v2.048c-11.264 2.048-21.504 6.144-33.792 14.336-11.264 7.168-14.336 22.528-7.168 33.792s22.528 14.336 33.792 7.168c11.264-7.168 15.36-8.192 31.744-8.192 15.36 0 21.504 12.288 22.528 19.456 1.024 8.192-2.048 15.36-12.288 19.456-18.432 6.144-39.936 14.336-55.296 26.624-32.768 25.6-23.552 84.992 20.48 101.376v3.072c0 14.336 11.264 24.576 23.552 24.576 13.312 0 23.552-11.264 23.552-23.552v-2.048c12.288-3.072 21.504-9.216 26.624-14.336 0 0 0 0 0 0 9.216-9.216 10.24-24.576 1.024-33.792-9.216-10.24-24.576-10.24-33.792-1.024-6.144 4.096-15.36 6.144-25.6 3.072-6.144-2.048-9.216-8.192-9.216-13.312 0-2.048 1.024-4.096 1.024-4.096 9.216-7.168 25.6-13.312 40.96-19.456 64.512-22.528 57.344-107.52-1.024-129.024z" />
<glyph unicode="&#xe92c;" glyph-name="iiconLogoA" d="M211.968 542.208v-206.848l23.552 31.744v175.104zM296.96 499.2h30.72l-55.296-65.536 56.32-66.56h-30.72l-57.344 66.56zM398.336 503.296c-19.456 0-35.84-7.168-50.176-20.48s-20.48-29.696-20.48-49.152c0-19.456 7.168-35.84 20.48-49.152s30.72-20.48 50.176-20.48c14.336 0 27.648 4.096 39.936 12.288l2.048 1.024v31.744l-7.168-8.192c-9.216-10.24-20.48-14.336-33.792-14.336s-23.552 4.096-32.768 13.312c-9.216 9.216-13.312 20.48-13.312 32.768 0 13.312 4.096 23.552 13.312 32.768s19.456 13.312 32.768 13.312c13.312 0 24.576-5.12 33.792-14.336l7.168-8.192v32.768l-2.048 1.024c-12.288 9.216-25.6 13.312-39.936 13.312zM680.96 440.832c-5.12 2.048-11.264 4.096-18.432 5.12-6.144 2.048-12.288 3.072-17.408 4.096-4.096 1.024-8.192 2.048-11.264 5.12-3.072 2.048-4.096 5.12-4.096 9.216s2.048 7.168 6.144 10.24c4.096 3.072 9.216 5.12 16.384 5.12 6.144 0 11.264-2.048 16.384-5.12 4.096-3.072 6.144-7.168 6.144-12.288v-4.096h23.552v4.096c0 12.288-4.096 21.504-13.312 29.696-9.216 7.168-19.456 11.264-31.744 11.264s-23.552-4.096-31.744-10.24c-9.216-7.168-14.336-16.384-14.336-27.648 0-8.192 2.048-15.36 6.144-21.504 4.096-5.12 9.216-9.216 15.36-11.264 5.12-2.048 11.264-3.072 18.432-5.12 6.144-1.024 12.288-3.072 17.408-4.096 4.096-1.024 8.192-3.072 11.264-6.144s4.096-6.144 4.096-11.264c0-5.12-2.048-9.216-7.168-13.312-7.168-4.096-13.312-6.144-20.48-6.144-8.192 0-14.336 2.048-19.456 6.144s-8.192 9.216-8.192 15.36v4.096h-23.552v-4.096c0-13.312 5.12-23.552 15.36-31.744s21.504-12.288 35.84-12.288c14.336 0 25.6 4.096 35.84 11.264 10.24 8.192 15.36 18.432 15.36 30.72 0 9.216-2.048 16.384-6.144 22.528-5.12 6.144-10.24 10.24-16.384 12.288zM715.776 499.2h23.552v-132.096h-23.552v132.096zM727.040 545.28c-4.096 0-7.168-1.024-10.24-4.096s-4.096-6.144-4.096-10.24c0-4.096 2.048-7.168 4.096-10.24 3.072-3.072 6.144-4.096 10.24-4.096s7.168 1.024 10.24 4.096c3.072 3.072 4.096 6.144 4.096 10.24s-2.048 7.168-4.096 10.24c-3.072 3.072-6.144 4.096-10.24 4.096zM813.056 503.296c-16.384 0-29.696-5.12-40.96-16.384-10.24-10.24-16.384-24.576-16.384-39.936v-78.848h23.552v78.848c0 9.216 3.072 17.408 10.24 23.552 6.144 6.144 14.336 10.24 23.552 10.24s16.384-3.072 23.552-10.24c6.144-6.144 10.24-14.336 10.24-23.552v-78.848h23.552v78.848c0 16.384-5.12 29.696-16.384 39.936s-24.576 16.384-40.96 16.384zM568.32 482.816c-13.312 13.312-30.72 20.48-49.152 20.48-19.456 0-35.84-7.168-50.176-20.48s-20.48-29.696-20.48-49.152c0-19.456 7.168-35.84 20.48-49.152 14.336-13.312 30.72-20.48 50.176-20.48 8.192 0 16.384 1.024 23.552 4.096v25.6c-7.168-4.096-15.36-6.144-23.552-6.144-13.312 0-23.552 4.096-32.768 13.312s-13.312 20.48-13.312 32.768c0 13.312 4.096 23.552 13.312 32.768s19.456 13.312 32.768 13.312c13.312 0 23.552-4.096 32.768-13.312s13.312-19.456 13.312-32.768v-65.536h23.552v65.536c0 19.456-7.168 35.84-20.48 49.152zM1007.616 477.696l-8.192 9.216v-53.248c0-13.312-4.096-23.552-13.312-32.768s-19.456-13.312-32.768-13.312c-13.312 0-23.552 4.096-32.768 13.312s-13.312 20.48-13.312 32.768c0 13.312 4.096 23.552 13.312 32.768s19.456 13.312 32.768 13.312c9.216 0 16.384-2.048 23.552-6.144v25.6c-7.168 3.072-15.36 4.096-23.552 4.096-19.456 0-35.84-7.168-50.176-20.48s-20.48-29.696-20.48-49.152c0-19.456 7.168-35.84 20.48-49.152 14.336-13.312 30.72-20.48 50.176-20.48s35.84 7.168 50.176 20.48c13.312 13.312 20.48 29.696 20.48 49.152 0 16.384-5.12 31.744-16.384 44.032zM113.664 439.808c-12.288 13.312-19.456 23.552-22.528 26.624-3.072-3.072-9.216-13.312-22.528-26.624-25.6-26.624-1.024-45.056 19.456-32.768 0-6.144-5.12-12.288-8.192-18.432h22.528c-3.072 5.12-8.192 12.288-9.216 18.432 21.504-12.288 44.032 9.216 20.48 32.768zM181.248 438.784l-19.456-2.048c-1.024 7.168-3.072 15.36-6.144 21.504l17.408 8.192c-8.192 16.384-20.48 29.696-35.84 38.912l-10.24-17.408c-6.144 4.096-13.312 6.144-21.504 8.192l4.096 19.456c-6.144 1.024-12.288 2.048-19.456 2.048-21.504 0-40.96-7.168-56.32-19.456l12.288-15.36c-6.144-5.12-11.264-10.24-15.36-16.384l-16.384 11.264c-9.216-14.336-14.336-31.744-14.336-50.176 0-4.096 0-7.168 1.024-11.264l19.456 3.072c1.024-7.168 3.072-15.36 6.144-21.504l-17.408-8.192c8.192-16.384 20.48-29.696 35.84-38.912l10.24 17.408c6.144-4.096 13.312-6.144 21.504-8.192l-5.12-20.48c6.144-1.024 12.288-2.048 19.456-2.048 21.504 0 40.96 7.168 56.32 19.456l-12.288 15.36c6.144 5.12 11.264 10.24 15.36 16.384l16.384-11.264c9.216 14.336 15.36 31.744 15.36 50.176 0 4.096-1.024 8.192-1.024 11.264zM15.36 437.76c-2.048 0-4.096 2.048-4.096 4.096s2.048 4.096 4.096 4.096c2.048 0 4.096-2.048 4.096-4.096 0-3.072-2.048-4.096-4.096-4.096zM147.456 482.816c2.048 0 4.096-2.048 4.096-4.096s-2.048-4.096-4.096-4.096c-2.048 0-4.096 2.048-4.096 4.096s2.048 4.096 4.096 4.096zM72.704 506.368c2.048 0 4.096-2.048 4.096-4.096s-2.048-4.096-4.096-4.096c-2.048 0-4.096 2.048-4.096 4.096 1.024 2.048 2.048 4.096 4.096 4.096zM35.84 371.2c-2.048 0-4.096 2.048-4.096 4.096s2.048 4.096 4.096 4.096c2.048 0 4.096-2.048 4.096-4.096-1.024-3.072-2.048-4.096-4.096-4.096zM109.568 349.696c-2.048 0-4.096 2.048-4.096 4.096s2.048 4.096 4.096 4.096 4.096-2.048 4.096-4.096-2.048-4.096-4.096-4.096zM91.136 363.008c-35.84 0-64.512 28.672-64.512 64.512s28.672 64.512 64.512 64.512 64.512-28.672 64.512-64.512-28.672-64.512-64.512-64.512zM165.888 406.016c-2.048 0-4.096 2.048-4.096 4.096s2.048 4.096 4.096 4.096c2.048 0 4.096-2.048 4.096-4.096-1.024-2.048-2.048-4.096-4.096-4.096zM33.792 508.416c9.216 7.168 18.432 12.288 29.696 15.36-1.024 1.024-1.024 2.048-1.024 3.072-1.024 3.072 0 6.144 3.072 6.144 2.048 1.024 5.12-1.024 5.12-4.096 0-1.024 0-2.048 0-3.072 8.192 2.048 16.384 3.072 25.6 3.072 3.072 0 5.12 0 8.192 0l-2.048 22.528c0 1.024-1.024 1.024-1.024 0-1.024-1.024-2.048-3.072-4.096-4.096-2.048-2.048-2.048-5.12 0-6.144 1.024-1.024 1.024-3.072 1.024-4.096-1.024-1.024-2.048-2.048-3.072-2.048-4.096-1.024-6.144 7.168-7.168 9.216 0 0 0 1.024 0 1.024 1.024 0 3.072 0 3.072 2.048 1.024 2.048-8.192 10.24-11.264 13.312 0 0-1.024 0-1.024 0-1.024-2.048-3.072-7.168-2.048-11.264 1.024-5.12 2.048-13.312-1.024-14.336-2.048-1.024-8.192 1.024-10.24 7.168l-1.024 2.048c0 0 0 1.024 1.024 1.024s1.024 0 2.048 0c4.096 0 5.12 1.024 4.096 4.096s-10.24 8.192-14.336 10.24c0 0 0 0 0 0s0 0 0 0c-2.048-4.096-8.192-13.312-7.168-16.384 0-3.072 2.048-4.096 4.096-3.072 1.024 0 2.048 1.024 2.048 1.024s1.024 0 1.024 0l1.024-2.048c2.048-6.144-2.048-11.264-5.12-11.264s-6.144 7.168-8.192 12.288c-1.024 4.096-5.12 8.192-7.168 9.216 0 0-1.024 0-1.024 0-1.024-5.12-5.12-15.36-3.072-17.408 1.024-1.024 3.072 0 4.096 0 0 0 1.024 0 1.024 0 1.024-2.048 2.048-10.24-2.048-11.264-1.024 0-3.072 0-4.096 0-1.024 1.024-2.048 2.048-2.048 4.096 1.024 2.048 0 5.12-3.072 5.12-2.048 0-5.12 1.024-6.144 2.048 0 0-1.024 0-1.024-1.024l13.312-22.528zM57.344 549.376c-1.024 2.048 0 4.096 2.048 4.096 1.024 0 3.072-1.024 4.096-3.072s0-4.096-2.048-4.096c-2.048-1.024-4.096 1.024-4.096 3.072z" />
<glyph unicode="&#xe92d;" glyph-name="iiconLogoB" d="M616.448 408.064c-55.296 60.416-90.112 107.52-102.4 123.904-12.288-15.36-43.008-61.44-101.376-123.904-118.784-119.808-3.072-207.872 90.112-150.528 1.024-29.696-22.528-57.344-36.864-83.968h100.352c-14.336 25.6-38.912 54.272-39.936 83.968 95.232-54.272 196.608 40.96 90.112 150.528zM925.696 404.992l-89.088-11.264c-4.096 34.816-14.336 68.608-28.672 99.328l80.896 38.912c-35.84 75.776-94.208 138.24-165.888 180.224l-46.080-77.824c-29.696 17.408-62.464 29.696-96.256 37.888l19.456 88.064c-28.672 6.144-57.344 9.216-88.064 9.216-98.304 0-188.416-33.792-259.072-90.112l56.32-70.656c-26.624-21.504-51.2-47.104-69.632-76.8l-75.776 49.152c-43.008-65.536-68.608-144.384-68.608-228.352 0-17.408 1.024-34.816 3.072-52.224l89.088 11.264c4.096-34.816 14.336-68.608 28.672-99.328l-80.896-38.912c35.84-75.776 94.208-138.24 165.888-180.224l45.056 77.824c29.696-17.408 62.464-30.72 96.256-37.888l-19.456-88.064c28.672-6.144 57.344-9.216 88.064-9.216 98.304 0 188.416 33.792 259.072 90.112l-56.32 70.656c26.624 21.504 51.2 47.104 69.632 76.8l75.776-49.152c43.008 65.536 68.608 144.384 68.608 228.352 1.024 17.408 0 34.816-2.048 52.224zM165.888 396.8c-10.24 0-18.432 8.192-18.432 18.432s8.192 18.432 18.432 18.432c10.24 0 18.432-8.192 18.432-18.432-1.024-10.24-9.216-18.432-18.432-18.432zM772.096 605.696c10.24 0 18.432-8.192 18.432-18.432s-8.192-18.432-18.432-18.432c-10.24 0-18.432 8.192-18.432 18.432s8.192 18.432 18.432 18.432zM430.080 713.216c10.24 0 18.432-8.192 18.432-18.432s-8.192-18.432-18.432-18.432c-10.24 0-18.432 8.192-18.432 18.432 1.024 10.24 9.216 18.432 18.432 18.432zM258.048 91.648c-10.24 0-18.432 8.192-18.432 18.432s8.192 18.432 18.432 18.432c10.24 0 18.432-8.192 18.432-18.432-1.024-10.24-9.216-18.432-18.432-18.432zM598.016-7.68c-10.24 0-18.432 8.192-18.432 18.432s8.192 18.432 18.432 18.432c10.24 0 18.432-8.192 18.432-18.432s-8.192-18.432-18.432-18.432zM512 55.808c-163.84 0-296.96 133.12-296.96 296.96s133.12 296.96 296.96 296.96 296.96-133.12 296.96-296.96-133.12-296.96-296.96-296.96zM854.016 253.44c-10.24 0-18.432 8.192-18.432 18.432s8.192 18.432 18.432 18.432c10.24 0 18.432-8.192 18.432-18.432-1.024-10.24-9.216-18.432-18.432-18.432zM251.904 720.384c39.936 30.72 84.992 55.296 134.144 71.68-3.072 3.072-5.12 7.168-6.144 12.288-4.096 13.312 2.048 26.624 11.264 29.696 10.24 3.072 21.504-6.144 24.576-19.456 1.024-4.096 1.024-8.192 1.024-12.288 36.864 9.216 75.776 14.336 115.712 14.336 12.288 0 23.552-1.024 34.816-1.024l-3.072 103.424c0 2.048-3.072 3.072-4.096 1.024-4.096-6.144-11.264-14.336-20.48-20.48-11.264-7.168-7.168-22.528 0-28.672 6.144-4.096 7.168-12.288 2.048-18.432-3.072-4.096-7.168-7.168-14.336-9.216-17.408-5.12-29.696 31.744-32.768 41.984 0 1.024 1.024 3.072 2.048 3.072 5.12 0 13.312 1.024 16.384 9.216 3.072 10.24-37.888 45.056-51.2 61.44-1.024 1.024-3.072 1.024-4.096-1.024-4.096-9.216-12.288-32.768-7.168-52.224 6.144-24.576 8.192-61.44-3.072-67.584s-37.888 5.12-45.056 32.768l-3.072 11.264c-1.024 2.048 1.024 4.096 4.096 4.096 3.072-1.024 6.144-1.024 11.264 0 12.288 3.072 16.384 11.264 13.312 24.576s-49.152 35.84-67.584 47.104c0 0 0 0-1.024 0 0 0 0 0 0-1.024-10.24-18.432-37.888-61.44-34.816-73.728 3.072-13.312 11.264-18.432 23.552-14.336 5.12 1.024 8.192 3.072 9.216 5.12 2.048 2.048 4.096 1.024 5.12-1.024l3.072-11.264c7.168-26.624-10.24-50.176-22.528-51.2-13.312-1.024-30.72 32.768-36.864 57.344-5.12 19.456-24.576 35.84-32.768 40.96-1.024 1.024-4.096 0-4.096-2.048-4.096-21.504-21.504-71.68-13.312-78.848 6.144-5.12 14.336-2.048 18.432 0 1.024 1.024 3.072 0 3.072-1.024 3.072-11.264 10.24-48.128-7.168-53.248-7.168-2.048-12.288-1.024-17.408 1.024-7.168 3.072-10.24 10.24-7.168 17.408 3.072 9.216-1.024 23.552-14.336 24.576-11.264 1.024-21.504 5.12-27.648 8.192-2.048 1.024-4.096-1.024-3.072-3.072l51.2-101.376zM357.376 908.8c-2.048 9.216 1.024 18.432 8.192 19.456 7.168 2.048 14.336-4.096 16.384-13.312s-1.024-18.432-8.192-19.456c-6.144-2.048-13.312 4.096-16.384 13.312z" />
<glyph unicode="&#xe92e;" glyph-name="iiconDice" d="M908.288-64h-792.576c-63.488 0-115.712 50.176-115.712 112.64v798.72c0 61.44 52.224 112.64 115.712 112.64h792.576c63.488 0 115.712-50.176 115.712-112.64v-798.72c0-62.464-52.224-112.64-115.712-112.64zM115.712 887.296c-23.552 0-43.008-18.432-43.008-39.936v-798.72c0-21.504 19.456-38.912 43.008-38.912h792.576c23.552 0 43.008 17.408 43.008 38.912v798.72c0 21.504-19.456 38.912-43.008 38.912h-792.576zM346.112 189.952c0-54.292-44.012-98.304-98.304-98.304s-98.304 44.012-98.304 98.304c0 54.292 44.012 98.304 98.304 98.304s98.304-44.012 98.304-98.304zM871.424 726.528c0-54.272-44.032-98.304-98.304-98.304s-98.304 44.032-98.304 98.304c0 54.272 44.032 98.304 98.304 98.304 54.272-1.024 98.304-45.056 98.304-98.304zM609.28 448c0-54.272-44.032-98.304-98.304-98.304s-98.304 44.032-98.304 98.304c0 54.272 44.032 98.304 98.304 98.304 55.296-1.024 98.304-44.032 98.304-98.304z" />
<glyph unicode="&#xe92f;" glyph-name="iiconSlote" d="M251.904 426.496h-71.68c-11.264 0-20.48-9.216-20.48-20.48s9.216-20.48 20.48-20.48h44.032l-48.128-133.12c-4.096-10.24 2.048-21.504 12.288-25.6 2.048-1.024 4.096-1.024 7.168-1.024 8.192 0 16.384 5.12 18.432 13.312l57.344 159.744c2.048 6.144 1.024 13.312-2.048 18.432-5.12 5.12-11.264 9.216-17.408 9.216zM484.352 426.496h-71.68c-11.264 0-20.48-9.216-20.48-20.48s9.216-20.48 20.48-20.48h44.032l-48.128-133.12c-4.096-10.24 2.048-21.504 12.288-25.6 2.048-1.024 4.096-1.024 7.168-1.024 8.192 0 16.384 5.12 18.432 13.312l57.344 159.744c2.048 6.144 1.024 13.312-2.048 18.432-5.12 5.12-11.264 9.216-17.408 9.216zM644.096 385.536h44.032l-48.128-133.12c-4.096-10.24 2.048-21.504 12.288-25.6 2.048-1.024 4.096-1.024 7.168-1.024 8.192 0 16.384 5.12 18.432 13.312l57.344 159.744c2.048 6.144 1.024 13.312-2.048 18.432-4.096 5.12-10.24 8.192-16.384 8.192h-71.68c-11.264 0-20.48-9.216-20.48-20.48-1.024-10.24 8.192-19.456 19.456-19.456zM795.648 513.536h-696.32c-11.264 0-20.48-9.216-20.48-20.48v-335.872c0-11.264 9.216-20.48 20.48-20.48h696.32c11.264 0 20.48 9.216 20.48 20.48v336.896c0 11.264-9.216 19.456-20.48 19.456zM119.808 473.6h192.512v-295.936h-192.512v295.936zM352.256 473.6h192.512v-295.936h-192.512v295.936zM776.192 177.664h-192.512v295.936h192.512v-295.936zM119.808 57.856h656.384zM816.128 57.856h60.416c11.264 0 20.48 9.216 20.48 20.48v227.328c44.032 1.024 79.872 37.888 79.872 82.944v316.416c27.648 8.192 48.128 34.816 48.128 64.512 0 37.888-30.72 67.584-67.584 67.584s-67.584-30.72-67.584-67.584c0-30.72 20.48-56.32 48.128-64.512v-316.416c0-22.528-17.408-40.96-39.936-41.984v227.328c0 11.264-9.216 20.48-20.48 20.48h-339.968c-11.264 0-20.48-9.216-20.48-20.48s9.216-20.48 20.48-20.48h318.464v-455.68h-816.128v456.704h318.464c11.264 0 20.48 9.216 20.48 20.48s-9.216 20.48-20.48 20.48h-337.92c-11.264 0-20.48-9.216-20.48-20.48v-495.616c0-11.264 9.216-20.48 20.48-20.48h60.416zM956.416 741.888c-15.36 0-27.648 12.288-27.648 27.648s12.288 27.648 27.648 27.648c15.36 0 27.648-12.288 27.648-27.648s-12.288-27.648-27.648-27.648zM447.488 554.496c5.12 0 10.24 2.048 14.336 6.144s6.144 9.216 6.144 14.336c0 5.12-2.048 10.24-6.144 14.336s-9.216 6.144-14.336 6.144-10.24-2.048-14.336-6.144c-4.096-4.096-6.144-9.216-6.144-14.336s2.048-10.24 6.144-14.336c4.096-4.096 9.216-6.144 14.336-6.144z" />
<glyph unicode="&#xe930;" glyph-name="iiconGame" d="M1022.976 318.976c-2.048 58.368-12.288 123.904-27.648 185.344-15.36 58.368-34.816 113.664-57.344 155.648-89.088 156.672-186.368 133.12-302.080 102.4-36.864-9.216-76.8-19.456-117.76-22.528h-12.288c-40.96 4.096-79.872 14.336-117.76 22.528-115.712 28.672-212.992 54.272-302.080-104.448-22.528-41.984-43.008-97.28-57.344-155.648-15.36-61.44-25.6-125.952-27.648-185.344-2.048-65.536 4.096-112.64 17.408-145.408 14.336-30.72 34.816-50.176 61.44-57.344 24.576-6.144 52.224-4.096 81.92 9.216 50.176 20.48 107.52 63.488 162.816 115.712 39.936 37.888 113.664 57.344 187.392 57.344s147.456-19.456 187.392-57.344c56.32-52.224 113.664-95.232 162.816-115.712 29.696-11.264 57.344-15.36 81.92-9.216 25.6 7.168 47.104 25.6 61.44 58.368s20.48 79.872 17.408 146.432zM962.56 192c-7.168-17.408-17.408-27.648-30.72-31.744-14.336-4.096-31.744-1.024-52.224 6.144-45.056 17.408-97.28 57.344-147.456 105.472-48.128 48.128-134.144 72.704-219.136 72.704s-171.008-24.576-220.16-70.656c-52.224-48.128-104.448-89.088-147.456-105.472-20.48-7.168-37.888-11.264-52.224-6.144-12.288 4.096-22.528 14.336-30.72 31.744-10.24 24.576-15.36 63.488-12.288 122.88 2.048 55.296 11.264 117.76 26.624 176.128 14.336 55.296 31.744 105.472 53.248 144.384 70.656 125.952 151.552 105.472 248.832 79.872 39.936-10.24 79.872-20.48 124.928-24.576h18.432c46.080 4.096 87.040 14.336 125.952 24.576 97.28 24.576 178.176 46.080 248.832-79.872 21.504-37.888 39.936-88.064 53.248-144.384 14.336-58.368 24.576-119.808 26.624-176.128 2.048-59.392-3.072-98.304-14.336-124.928zM394.24 567.808c-12.288 11.264-27.648 20.48-46.080 21.504-1.024 16.384-9.216 32.768-20.48 45.056l-1.024 1.024c-14.336 14.336-31.744 21.504-52.224 21.504s-39.936-9.216-52.224-21.504c-11.264-11.264-20.48-27.648-21.504-46.080-17.408-1.024-32.768-9.216-46.080-20.48l-1.024-1.024c-14.336-14.336-21.504-31.744-21.504-52.224s9.216-39.936 21.504-52.224 27.648-20.48 47.104-21.504c1.024-17.408 9.216-34.816 21.504-46.080 14.336-14.336 31.744-21.504 52.224-21.504s39.936 9.216 52.224 21.504c11.264 12.288 20.48 27.648 21.504 46.080 17.408 1.024 34.816 9.216 46.080 21.504 14.336 14.336 21.504 31.744 21.504 52.224 1.024 20.48-8.192 39.936-21.504 52.224zM362.496 496.128c-5.12-5.12-11.264-7.168-19.456-7.168h-17.408c-12.288 0-24.576-10.24-24.576-24.576v-16.384c0-7.168-2.048-14.336-7.168-19.456s-11.264-7.168-19.456-7.168c-7.168 0-14.336 2.048-19.456 7.168s-7.168 11.264-7.168 19.456v17.408c0 12.288-10.24 24.576-24.576 24.576h-17.408c-7.168 0-14.336 2.048-19.456 7.168-4.096 4.096-7.168 10.24-7.168 17.408s2.048 14.336 7.168 19.456l1.024 1.024c5.12 4.096 11.264 6.144 17.408 6.144h17.408c12.288 0 24.576 10.24 24.576 24.576v17.408c0 7.168 2.048 14.336 7.168 19.456s11.264 7.168 19.456 7.168c7.168 0 14.336-2.048 19.456-7.168l1.024-1.024c4.096-5.12 6.144-11.264 6.144-17.408v-17.408c0-12.288 10.24-24.576 24.576-24.576h17.408c7.168 0 14.336-2.048 19.456-7.168s7.168-11.264 7.168-19.456c2.048-7.168-1.024-14.336-6.144-19.456zM734.208 650.752c24.576 0 45.056-20.48 45.056-45.056s-20.48-45.056-45.056-45.056c-24.576 0-45.056 20.48-45.056 45.056s20.48 45.056 45.056 45.056zM734.208 469.504c24.576 0 45.056-20.48 45.056-45.056s-20.48-45.056-45.056-45.056c-24.576 0-45.056 20.48-45.056 45.056 0 25.6 20.48 45.056 45.056 45.056zM643.072 560.64c24.576 0 45.056-20.48 45.056-45.056s-20.48-45.056-45.056-45.056c-24.576 0-45.056 20.48-45.056 45.056 1.024 24.576 20.48 45.056 45.056 45.056zM824.32 560.64c24.576 0 45.056-20.48 45.056-45.056s-20.48-45.056-45.056-45.056c-24.576 0-45.056 20.48-45.056 45.056 1.024 24.576 20.48 45.056 45.056 45.056z" />
<glyph unicode="&#xe931;" glyph-name="iiconPoker" d="M806.912 960h-589.824c-44.032 0-79.872-35.84-79.872-79.872v-863.232c0-44.032 35.84-79.872 79.872-79.872h589.824c44.032 0 79.872 35.84 79.872 79.872v863.232c1.024 44.032-35.84 79.872-79.872 79.872zM819.2 15.872c0-6.144-5.12-12.288-12.288-12.288h-589.824c-6.144 0-12.288 5.12-12.288 12.288v864.256c0 6.144 5.12 12.288 12.288 12.288h589.824c6.144 0 12.288-5.12 12.288-12.288v-864.256zM613.376 549.376c-4.096 51.2-47.104 92.16-99.328 92.16h-4.096c-52.224 0-95.232-39.936-99.328-91.136-19.456-3.072-38.912-15.36-55.296-33.792-19.456-21.504-30.72-49.152-30.72-77.824 0-30.72 12.288-59.392 33.792-80.896 15.36-15.36 34.816-25.6 55.296-30.72l-45.056-71.68h290.816l-47.104 72.704c19.456 5.12 37.888 15.36 52.224 29.696 21.504 21.504 33.792 50.176 33.792 80.896 0 28.672-11.264 56.32-30.72 77.824-14.336 16.384-32.768 27.648-54.272 32.768zM585.728 368.128c-2.048 0-5.12 0-7.168 0l-46.080 5.12 48.128-74.752h-134.144l47.104 76.8-46.080-6.144c-3.072 0-6.144-1.024-9.216-1.024-38.912 0-70.656 31.744-70.656 70.656 0 36.864 28.672 67.584 65.536 70.656l20.48 1.024v30.72c0 30.72 25.6 56.32 56.32 56.32h4.096c30.72 0 56.32-25.6 56.32-56.32v-30.72l20.48-1.024c36.864-3.072 65.536-33.792 65.536-70.656 0-38.912-31.744-70.656-70.656-70.656z" />
<glyph unicode="&#xe932;" glyph-name="iiconSpeaker" d="M953.344 898.56c-31.744 0-59.392-21.504-67.584-50.176l-757.76-219.136c-13.312 17.408-33.792 28.672-56.32 28.672-38.912 0-70.656-31.744-70.656-70.656v-260.096c0-38.912 31.744-70.656 70.656-70.656 22.528 0 44.032 11.264 56.32 28.672l89.088-25.6v-118.784c0-13.312 8.192-25.6 21.504-29.696l337.92-112.64c3.072-1.024 6.144-2.048 10.24-2.048 6.144 0 12.288 2.048 18.432 6.144 8.192 6.144 13.312 15.36 13.312 25.6v114.688l268.288-77.824c9.216-28.672 35.84-50.176 67.584-50.176 38.912 0 70.656 31.744 70.656 70.656v742.4c-1.024 38.912-32.768 70.656-71.68 70.656zM555.008 71.168l-276.48 92.16v76.8l276.48-79.872v-89.088zM962.56 85.504c0-5.12-4.096-9.216-9.216-9.216s-9.216 4.096-9.216 9.216v4.096c0 13.312-9.216 25.6-22.528 29.696l-664.576 191.488c0 0 0 0 0 0l-138.24 39.936c-3.072 1.024-6.144 1.024-8.192 1.024-6.144 0-11.264-2.048-16.384-5.12-7.168-5.12-12.288-12.288-13.312-21.504-1.024-4.096-4.096-8.192-9.216-8.192s-9.216 4.096-9.216 9.216v261.12c0 5.12 4.096 9.216 9.216 9.216 4.096 0 8.192-3.072 9.216-8.192 1.024-9.216 6.144-16.384 13.312-21.504s16.384-6.144 25.6-4.096l801.792 232.448c13.312 4.096 22.528 16.384 22.528 29.696v3.072c0 5.12 4.096 9.216 9.216 9.216s9.216-4.096 9.216-9.216v-742.4z" />
<glyph unicode="&#xe933;" glyph-name="iiconRing" d="M908.288 271.872c0 0 0 0 0 0-54.272 46.080-86.016 113.664-86.016 185.344v112.64c0 74.752-27.648 147.456-76.8 203.776-43.008 49.152-101.376 83.968-164.864 98.304v20.48c0 36.864-30.72 67.584-68.608 67.584s-68.608-30.72-68.608-68.608v-20.48c-63.488-14.336-121.856-49.152-164.864-98.304-49.152-56.32-76.8-129.024-76.8-203.776v-112.64c0-71.68-31.744-139.264-86.016-185.344-21.504-18.432-34.816-46.080-34.816-74.752 0-54.272 44.032-99.328 99.328-99.328h157.696c-2.048-5.12-3.072-11.264-2.048-17.408 17.408-82.944 91.136-143.36 176.128-143.36s158.72 60.416 176.128 143.36c1.024 6.144 0 12.288-2.048 17.408h158.72c54.272 0 99.328 44.032 99.328 99.328-1.024 28.672-13.312 56.32-35.84 75.776zM512-7.68c-46.080 0-87.040 25.6-107.52 64.512h216.064c-21.504-38.912-62.464-64.512-108.544-64.512zM844.8 154.112h-665.6c-23.552 0-41.984 18.432-41.984 41.984 0 12.288 5.12 23.552 14.336 31.744 67.584 57.344 106.496 140.288 106.496 228.352v112.64c0 124.928 93.184 233.472 217.088 250.88 14.336 2.048 24.576 14.336 24.576 27.648v44.032c0 6.144 5.12 12.288 12.288 12.288 6.144 0 12.288-5.12 12.288-12.288v-44.032c0-14.336 10.24-25.6 24.576-27.648 123.904-17.408 217.088-125.952 217.088-250.88v-112.64c0-88.064 38.912-171.008 105.472-228.352 9.216-8.192 15.36-19.456 15.36-32.768 0-22.528-19.456-40.96-41.984-40.96z" />
<glyph unicode="&#xe934;" glyph-name="iiconPolicy" d="M843.776 186.88c99.328 0 180.224 80.896 180.224 180.224l-136.192 351.232h35.84v60.416h-50.176v51.2h-60.416v-51.2h-216.064c-9.216 25.6-29.696 46.080-55.296 55.296v65.536h58.368v60.416h-176.128v-60.416h58.368v-65.536c-25.6-9.216-46.080-29.696-55.296-55.296h-216.064v50.176h-60.416v-50.176h-54.272v-60.416h39.936l-136.192-351.232c0-99.328 80.896-180.224 180.224-180.224s180.224 80.896 180.224 180.224l-135.168 352.256h201.728c9.216-25.6 29.696-46.080 55.296-55.296v-547.84h-252.928v-120.832h-62.464v-60.416h691.2v60.416h-62.464v120.832h-253.952v547.84c25.6 9.216 46.080 28.672 55.296 54.272h201.728l-136.192-351.232c0-99.328 80.896-180.224 181.248-180.224zM180.224 246.272c-56.32 0-103.424 38.912-116.736 90.112h233.472c-13.312-51.2-60.416-90.112-116.736-90.112zM286.72 396.8h-211.968l106.496 270.336 105.472-270.336zM735.232 56.832v-60.416h-446.464v60.416h446.464zM512 719.36c-16.384 0-29.696 13.312-29.696 29.696s13.312 29.696 29.696 29.696c16.384 0 29.696-13.312 29.696-29.696s-13.312-29.696-29.696-29.696zM843.776 667.136l105.472-270.336h-211.968l106.496 270.336zM959.488 336.384c-13.312-52.224-60.416-90.112-116.736-90.112s-103.424 38.912-116.736 90.112h233.472z" />
<glyph unicode="&#xe935;" glyph-name="iiconGood" d="M1024 356.864c0 23.552-6.144 45.056-18.432 64.512 14.336 23.552 20.48 51.2 18.432 78.848-6.144 65.536-64.512 116.736-133.12 116.736h-211.968c11.264 38.912 22.528 89.088 22.528 133.12 0 46.080-17.408 93.184-49.152 131.072-30.72 36.864-67.584 58.368-100.352 58.368-47.104 0-80.896-23.552-90.112-30.72v0c-11.264-9.216-18.432-23.552-18.432-37.888v-130.048l-104.448-226.304v22.528h-209.92c-70.656 0-129.024-58.368-129.024-129.024v-322.56c0-71.68 58.368-129.024 129.024-129.024h120.832c27.648 0 55.296 9.216 77.824 25.6l11.264 8.192v31.744c38.912-18.432 84.992-26.624 112.64-26.624h369.664c57.344 0 107.52 38.912 118.784 92.16 4.096 18.432 4.096 36.864-1.024 55.296 27.648 22.528 44.032 55.296 44.032 92.16 0 10.24-1.024 19.456-3.072 28.672 27.648 23.552 44.032 57.344 44.032 93.184zM282.624 20.992c-10.24-5.12-20.48-7.168-31.744-7.168h-121.856c-39.936 0-72.704 32.768-72.704 72.704v321.536c0 39.936 32.768 72.704 72.704 72.704h152.576v-459.776zM932.864 301.568l-25.6-12.288 12.288-25.6c4.096-8.192 6.144-17.408 6.144-27.648 0-23.552-13.312-45.056-33.792-55.296l-25.6-12.288 12.288-25.6c6.144-13.312 8.192-27.648 5.12-41.984-6.144-27.648-32.768-48.128-63.488-48.128h-368.64c-18.432 0-46.080 5.12-72.704 14.336v399.36l120.832 262.144v138.24c8.192 5.12 27.648 16.384 52.224 16.384 12.288 0 35.84-13.312 56.32-37.888 23.552-27.648 36.864-62.464 36.864-95.232 0-51.2-19.456-117.76-30.72-152.576l-12.288-36.864h287.744c39.936 0 73.728-28.672 76.8-65.536 2.048-20.48-5.12-39.936-18.432-55.296l-18.432-20.48 19.456-19.456c11.264-11.264 18.432-26.624 18.432-43.008 0-23.552-13.312-44.032-34.816-55.296z" />
<glyph unicode="&#xe936;" glyph-name="iiconMail" d="M363.52 692.736h296.96c16.384 0 29.696 13.312 29.696 29.696s-13.312 29.696-29.696 29.696h-296.96c-16.384 0-29.696-13.312-29.696-29.696s13.312-29.696 29.696-29.696zM690.176 579.072c0 16.384-13.312 29.696-29.696 29.696h-296.96c-16.384 0-29.696-13.312-29.696-29.696s13.312-29.696 29.696-29.696h296.96c16.384 0 29.696 13.312 29.696 29.696zM1005.568 667.136l-136.192 56.32v182.272c0 16.384-13.312 29.696-29.696 29.696h-655.36c-16.384 0-29.696-13.312-29.696-29.696v-182.272l-136.192-56.32c-11.264-4.096-18.432-15.36-18.432-27.648v-649.216c0-16.384 13.312-29.696 29.696-29.696h963.584c16.384 0 29.696 13.312 29.696 29.696v649.216c1.024 12.288-6.144 23.552-17.408 27.648zM869.376 658.944l71.68-29.696-71.68-70.656v100.352zM214.016 876.032h594.944v-376.832l-169.984-168.96-107.52 91.136c-11.264 9.216-27.648 9.216-38.912 0l-107.52-91.136-171.008 168.96v376.832zM154.624 658.944v-100.352l-71.68 70.656 71.68 29.696zM60.416 567.808l278.528-276.48-278.528-236.544v513.024zM111.616 19.968l400.384 338.944 400.384-338.944h-800.768zM963.584 54.784l-278.528 236.544 278.528 276.48v-513.024z" />
<glyph unicode="&#xe937;" glyph-name="iiconMember" d="M866.304-64c-22.528 0-39.936 17.408-39.936 39.936 0 156.672-126.976 283.648-283.648 283.648h-60.416c-156.672 0-283.648-126.976-283.648-283.648 0-22.528-17.408-39.936-39.936-39.936s-39.936 17.408-39.936 39.936c0 200.704 162.816 363.52 363.52 363.52h60.416c200.704 0 363.52-162.816 363.52-363.52 0-22.528-18.432-39.936-39.936-39.936zM507.904 420.352c-148.48 0-270.336 120.832-270.336 270.336s121.856 269.312 270.336 269.312 270.336-120.832 270.336-270.336-121.856-269.312-270.336-269.312zM507.904 880.128c-104.448 0-190.464-84.992-190.464-190.464s84.992-190.464 190.464-190.464 190.464 84.992 190.464 190.464-86.016 190.464-190.464 190.464z" />
<glyph unicode="&#xe938;" glyph-name="iiconDeposit" d="M896 383.488v-384h-768v384h-128v-63.488h64.512v-384h894.976v384h64.512v63.488zM427.008 331.264c17.408-5.12 34.816-8.192 52.224-10.24v-148.48l-57.344 57.344-45.056-45.056 135.168-134.144 134.144 134.144-45.056 45.056-57.344-57.344v149.504c176.128 17.408 304.128 175.104 286.72 351.232-1.024 9.216-2.048 18.432-4.096 27.648l-62.464-12.288c26.624-138.24-64.512-272.384-202.752-299.008s-272.384 64.512-299.008 202.752 63.488 272.384 201.728 299.008c38.912 7.168 78.848 6.144 116.736-4.096l17.408 61.44c-171.008 47.104-347.136-53.248-394.24-224.256s53.248-346.112 223.232-393.216zM721.92 882.176c-17.408 15.36-37.888 28.672-58.368 39.936l-30.72-56.32c16.384-9.216 32.768-19.456 47.104-31.744l41.984 48.128zM746.496 742.912l58.368 25.6c-9.216 21.504-21.504 41.984-35.84 61.44l-51.2-37.888c11.264-15.36 21.504-31.744 28.672-49.152zM512 735.744h96.256v63.488h-63.488v64.512h-63.488v-69.632c-50.176-17.408-75.776-72.704-58.368-121.856 13.312-37.888 50.176-64.512 90.112-63.488 17.408 0 31.744-14.336 31.744-31.744s-14.336-31.744-31.744-31.744h-96.256v-63.488h63.488v-63.488h63.488v69.632c50.176 17.408 75.776 72.704 58.368 121.856-13.312 37.888-50.176 64.512-90.112 63.488-17.408 0-31.744 14.336-31.744 31.744 0 16.384 14.336 30.72 31.744 30.72zM320.512 127.488h-64.512v64.512h-63.488v-128h128zM703.488 127.488v-63.488h128v128h-63.488v-64.512z" />
<glyph unicode="&#xe939;" glyph-name="iiconWithdraw" d="M868.352 352.768v-357.376h-712.704v357.376h-119.808v-60.416h59.392v-356.352h833.536v356.352h59.392v60.416zM590.848 125.44l-15.36 57.344c-34.816-9.216-71.68-11.264-107.52-4.096-129.024 24.576-212.992 149.504-188.416 277.504 24.576 129.024 149.504 212.992 277.504 188.416 129.024-23.552 212.992-148.48 188.416-277.504l58.368-11.264c2.048 8.192 3.072 17.408 4.096 25.6 16.384 163.84-102.4 309.248-266.24 325.632v139.264l53.248-53.248 41.984 41.984-124.928 124.928-124.928-124.928 41.984-41.984 53.248 53.248v-138.24c-16.384-2.048-32.768-5.12-49.152-9.216-157.696-43.008-250.88-206.848-207.872-365.568 44.032-157.696 207.872-250.88 365.568-207.872zM624.64 202.24l27.648-52.224c19.456 10.24 37.888 22.528 54.272 37.888l-38.912 45.056c-13.312-12.288-27.648-21.504-43.008-30.72zM784.384 293.376l-54.272 23.552c-7.168-16.384-16.384-31.744-26.624-46.080l48.128-34.816c13.312 18.432 23.552 36.864 32.768 57.344zM333.824 114.176h-59.392v59.392h-59.392v-118.784h118.784zM808.96 173.568h-59.392v-59.392h-59.392v-59.392h118.784zM512 501.248h89.088v59.392h-59.392v59.392h-59.392v-64.512c-46.080-16.384-70.656-67.584-54.272-113.664 12.288-35.84 46.080-59.392 83.968-59.392 16.384 0 29.696-13.312 29.696-29.696s-13.312-29.696-29.696-29.696h-89.088v-59.392h59.392v-59.392h59.392v64.512c46.080 16.384 70.656 67.584 54.272 113.664-12.288 34.816-46.080 59.392-83.968 59.392-16.384 0-29.696 13.312-29.696 29.696s13.312 29.696 29.696 29.696z" />
<glyph unicode="&#xe93a;" glyph-name="iiconListA" d="M728.064 756.224h96.256c11.264 0 20.48 6.144 24.576 16.384s2.048 21.504-6.144 29.696l-147.456 149.504c-8.192 8.192-19.456 10.24-29.696 6.144s-16.384-14.336-16.384-24.576v-96.256c0 0 0 0 0 0 0-45.056 35.84-80.896 78.848-80.896zM703.488 866.816l56.32-56.32h-31.744c-13.312 0-24.576 11.264-24.576 24.576v31.744zM850.944 385.536v366.592h-148.48c-32.768 0-59.392 26.624-59.392 59.392v148.48h-529.408c-44.032 0-78.848-35.84-78.848-78.848v-866.304c0-43.008 35.84-78.848 78.848-78.848h613.376l-3.072 2.048c10.24-1.024 20.48-2.048 30.72-2.048 129.024 0 234.496 105.472 234.496 234.496 0 95.232-56.32 178.176-138.24 215.040zM113.664-9.728c-13.312 0-24.576 11.264-24.576 24.576v866.304c0 13.312 11.264 24.576 24.576 24.576h475.136v-94.208c0-62.464 51.2-113.664 113.664-113.664h94.208v-261.12c-58.368 9.216-117.76-1.024-169.984-28.672-63.488-33.792-109.568-91.136-130.048-159.744-27.648-92.16-3.072-189.44 58.368-258.048h-441.344zM754.688-9.728c-99.328 0-181.248 80.896-181.248 181.248 0 99.328 80.896 180.224 181.248 181.248 99.328 0 181.248-80.896 181.248-181.248-1.024-100.352-81.92-181.248-181.248-181.248zM875.52 187.904h-112.64l-80.896 97.28c-6.144 7.168-17.408 8.192-24.576 2.048s-8.192-17.408-2.048-24.576c0 0 16.384-19.456 35.84-43.008 19.456-22.528 40.96-49.152 51.2-61.44 2.048-2.048 5.12-5.12 11.264-6.144 1.024 0 1.024 0 2.048 0h120.832c9.216 0 17.408 8.192 17.408 17.408-1.024 11.264-8.192 18.432-18.432 18.432zM148.48 725.504h207.872c9.216 0 17.408 8.192 17.408 17.408s-8.192 17.408-17.408 17.408h-207.872c-9.216 0-17.408-8.192-17.408-17.408 0-10.24 7.168-17.408 17.408-17.408zM148.48 621.056h103.424c9.216 0 17.408 8.192 17.408 17.408s-8.192 17.408-17.408 17.408h-103.424c-9.216 0-17.408-8.192-17.408-17.408s7.168-17.408 17.408-17.408zM148.48 517.632h346.112c9.216 0 17.408 8.192 17.408 17.408s-8.192 17.408-17.408 17.408h-346.112c-9.216 0-17.408-8.192-17.408-17.408 0-10.24 7.168-17.408 17.408-17.408zM148.48 413.184h207.872c9.216 0 17.408 8.192 17.408 17.408s-8.192 17.408-17.408 17.408h-207.872c-9.216 0-17.408-8.192-17.408-17.408s7.168-17.408 17.408-17.408zM286.72 136.704h-138.24c-9.216 0-17.408-8.192-17.408-17.408s8.192-17.408 17.408-17.408h138.24c9.216 0 17.408 8.192 17.408 17.408s-8.192 17.408-17.408 17.408zM148.48 205.312h103.424c9.216 0 17.408 8.192 17.408 17.408s-8.192 17.408-17.408 17.408h-103.424c-9.216 0-17.408-8.192-17.408-17.408s7.168-17.408 17.408-17.408zM424.96 136.704h-69.632c-9.216 0-17.408-8.192-17.408-17.408s8.192-17.408 17.408-17.408h69.632c9.216 0 17.408 8.192 17.408 17.408s-7.168 17.408-17.408 17.408zM424.96 240.128h-103.424c-9.216 0-17.408-8.192-17.408-17.408s8.192-17.408 17.408-17.408h103.424c9.216 0 17.408 8.192 17.408 17.408s-7.168 17.408-17.408 17.408zM459.776 344.576h-311.296c-9.216 0-17.408-8.192-17.408-17.408s8.192-17.408 17.408-17.408h311.296c9.216 0 17.408 8.192 17.408 17.408s-7.168 17.408-17.408 17.408zM564.224 448h-139.264c-9.216 0-17.408-8.192-17.408-17.408s8.192-17.408 17.408-17.408h138.24c9.216 0 17.408 8.192 17.408 17.408 1.024 9.216-7.168 17.408-16.384 17.408zM737.28 551.424h-173.056c-9.216 0-17.408-8.192-17.408-17.408s8.192-17.408 17.408-17.408h173.056c9.216 0 17.408 8.192 17.408 17.408 0 10.24-8.192 17.408-17.408 17.408zM304.128 638.464c0-9.216 8.192-17.408 17.408-17.408h415.744c9.216 0 17.408 8.192 17.408 17.408s-8.192 17.408-17.408 17.408h-415.744c-9.216 0-17.408-8.192-17.408-17.408z" />
<glyph unicode="&#xe93b;" glyph-name="iiconListB" d="M241.664 353.792h60.416v60.416h60.416v241.664h-60.416v60.416h-60.416v-60.416h-60.416v-241.664h60.416v-60.416zM241.664 596.48h60.416v-121.856h-60.416v121.856zM721.92 353.792h60.416v60.416h60.416v482.304h-60.416v59.392h-60.416v-60.416h-60.416v-482.304h60.416v-59.392zM721.92 836.096h60.416v-362.496h-60.416v362.496zM482.304 353.792h60.416v60.416h60.416v362.496h-60.416v60.416h-60.416v-60.416h-60.416v-362.496h60.416v-60.416zM482.304 716.288h60.416v-241.664h-60.416v241.664zM1009.664 258.56c-40.96 71.68-132.096 97.28-203.776 55.296l-143.36-84.992v65.536h-340.992c-113.664 0-215.040-43.008-301.056-129.024l-20.48-21.504 204.8-204.8 20.48 15.36c32.768 24.576 77.824 38.912 121.856 38.912h268.288l408.576 239.616-14.336 25.6zM599.040 53.76h-251.904c-48.128 0-96.256-13.312-136.192-36.864l-124.928 126.976c68.608 60.416 148.48 91.136 236.544 91.136h280.576v-60.416h-210.944v-60.416h270.336v45.056l173.056 103.424c34.816 19.456 75.776 13.312 103.424-10.24l-339.968-198.656z" />
<glyph unicode="&#xe93c;" glyph-name="iiconService" d="M512 960c-247.808 0-449.536-201.728-449.536-449.536v-243.712c0-49.152 39.936-90.112 90.112-90.112h34.816c12.288-34.816 46.080-60.416 84.992-60.416 49.152 0 90.112 39.936 90.112 90.112v243.712c0 49.152-39.936 90.112-90.112 90.112-38.912 0-72.704-24.576-84.992-60.416h-34.816c-10.24 0-20.48-2.048-29.696-5.12v34.816c-1.024 216.064 174.080 390.144 389.12 390.144s390.144-175.104 390.144-390.144v-34.816c-9.216 3.072-19.456 5.12-29.696 5.12h-34.816c-12.288 34.816-46.080 60.416-84.992 60.416-49.152 0-90.112-39.936-90.112-90.112v-243.712c0-49.152 39.936-90.112 90.112-90.112 9.216 0 17.408 1.024 26.624 4.096-11.264-36.864-46.080-63.488-86.016-63.488h-95.232c-12.288 34.816-46.080 60.416-84.992 60.416-49.152 0-90.112-39.936-90.112-90.112 0-49.152 39.936-90.112 90.112-90.112 38.912 0 72.704 24.576 84.992 60.416h95.232c82.944 0 149.504 67.584 149.504 149.504v29.696h29.696c49.152 0 90.112 39.936 90.112 90.112v243.712c-1.024 247.808-202.752 449.536-450.56 449.536zM241.664 450.048c0 16.384 13.312 29.696 29.696 29.696s29.696-13.312 29.696-29.696v-243.712c0-16.384-13.312-29.696-29.696-29.696s-29.696 13.312-29.696 29.696v243.712zM151.552 420.352h29.696v-184.32h-29.696c-16.384 0-29.696 13.312-29.696 29.696v123.904c0 17.408 13.312 30.72 29.696 30.72zM512-3.584c-16.384 0-29.696 13.312-29.696 29.696s13.312 29.696 29.696 29.696 29.696-13.312 29.696-29.696-13.312-29.696-29.696-29.696zM782.336 206.336c0-16.384-13.312-29.696-29.696-29.696s-29.696 13.312-29.696 29.696v243.712c0 16.384 13.312 29.696 29.696 29.696s29.696-13.312 29.696-29.696v-243.712zM902.144 265.728c0-16.384-13.312-29.696-29.696-29.696h-29.696v184.32h29.696c16.384 0 29.696-13.312 29.696-29.696v-124.928z" />
<glyph unicode="&#xe93d;" glyph-name="iiconCell" d="M694.272 960c-16.384 0-29.696-13.312-29.696-29.696s13.312-29.696 29.696-29.696c148.48 0 270.336-120.832 270.336-270.336 0-16.384 13.312-29.696 29.696-29.696s29.696 13.312 29.696 29.696c0 181.248-148.48 329.728-329.728 329.728zM694.272 840.192c-16.384 0-29.696-13.312-29.696-29.696s13.312-29.696 29.696-29.696c82.944 0 150.528-67.584 150.528-150.528 0-16.384 13.312-29.696 29.696-29.696s29.696 13.312 29.696 29.696c0 115.712-94.208 209.92-209.92 209.92zM723.968 630.272c0-16.384 13.312-29.696 29.696-29.696s29.696 13.312 29.696 29.696c0 49.152-39.936 90.112-90.112 90.112-16.384 0-29.696-13.312-29.696-29.696s13.312-29.696 29.696-29.696c17.408-1.024 30.72-14.336 30.72-30.72zM487.424 466.432c-11.264-11.264-12.288-30.72 0-41.984 11.264-11.264 30.72-11.264 41.984 0 12.288 12.288 11.264 30.72 0 41.984s-29.696 11.264-41.984 0zM785.408 466.432l-254.976 254.976c-34.816 34.816-92.16 34.816-126.976 0l-324.608-324.608c-105.472-105.472-105.472-276.48 0-381.952s276.48-105.472 381.952 0l324.608 324.608c34.816 34.816 34.816 92.16 0 126.976v0zM233.472 126.464c-11.264-11.264-30.72-11.264-41.984 0s-11.264 30.72 0 41.984c11.264 11.264 30.72 11.264 41.984 0s11.264-29.696 0-41.984zM233.472 296.448c-11.264-11.264-30.72-11.264-41.984 0s-11.264 30.72 0 41.984c11.264 11.264 30.72 11.264 41.984 0s11.264-29.696 0-41.984zM318.464 211.456c-11.264-11.264-30.72-11.264-41.984 0s-11.264 30.72 0 41.984c11.264 11.264 30.72 11.264 41.984 0s11.264-29.696 0-41.984zM318.464 381.44c-11.264-11.264-30.72-11.264-41.984 0s-11.264 30.72 0 41.984c11.264 11.264 30.72 11.264 41.984 0s11.264-29.696 0-41.984zM403.456 126.464c-11.264-11.264-30.72-11.264-41.984 0s-11.264 30.72 0 41.984c11.264 11.264 30.72 11.264 41.984 0s11.264-29.696 0-41.984zM403.456 296.448c-11.264-11.264-30.72-11.264-41.984 0s-11.264 30.72 0 41.984c11.264 11.264 30.72 11.264 41.984 0s11.264-29.696 0-41.984zM487.424 211.456c-11.264-11.264-30.72-11.264-41.984 0s-11.264 30.72 0 41.984c11.264 11.264 30.72 11.264 41.984 0 12.288-11.264 12.288-29.696 0-41.984zM572.416 381.44c-34.816-34.816-92.16-34.816-126.976 0s-34.816 92.16 0 126.976c33.792 33.792 93.184 33.792 126.976 0 35.84-34.816 35.84-92.16 0-126.976z" />
<glyph unicode="&#xe93e;" glyph-name="iiconDownload" d="M631.808 267.776h-29.696v150.528c0 16.384-13.312 29.696-29.696 29.696h-120.832c-16.384 0-29.696-13.312-29.696-29.696v-149.504h-29.696c-11.264 0-21.504-6.144-26.624-15.36-5.12-10.24-5.12-21.504 1.024-30.72l119.808-180.224c6.144-9.216 15.36-14.336 25.6-14.336s19.456 5.12 24.576 13.312l119.808 180.224c6.144 9.216 7.168 21.504 1.024 30.72-4.096 9.216-14.336 15.36-25.6 15.36zM870.4 608.768c-3.072 35.84-17.408 69.632-43.008 95.232-38.912 38.912-97.28 50.176-148.48 35.84-48.128 79.872-133.12 128-227.328 128-140.288 0-256-107.52-268.288-247.808-104.448-26.624-183.296-121.856-183.296-232.448 0-132.096 109.568-239.616 241.664-239.616h101.376l-25.6 39.936c-18.432 27.648-20.48 63.488-4.096 92.16 11.264 20.48 28.672 34.816 49.152 41.984v95.232c0 49.152 39.936 90.112 90.112 90.112h119.808c49.152 0 90.112-39.936 90.112-90.112v-95.232c20.48-7.168 38.912-22.528 49.152-41.984 15.36-29.696 14.336-64.512-4.096-92.16l-26.624-39.936h101.376c132.096 0 241.664 107.52 241.664 239.616 0 99.328-62.464 185.344-153.6 221.184z" />
<glyph unicode="&#xe93f;" glyph-name="iiconFriend" d="M589.778 822.779c102.933-42.637 151.812-160.645 109.175-263.578s-160.645-151.812-263.578-109.175c-102.933 42.637-151.812 160.645-109.175 263.578s160.645 151.812 263.578 109.175zM829.44 368.128c69.632 0 126.976 57.344 126.976 126.976s-57.344 126.976-126.976 126.976c-69.632 0-126.976-57.344-126.976-126.976 0-70.656 57.344-126.976 126.976-126.976zM194.56 368.128c69.632 0 126.976 57.344 126.976 126.976s-57.344 126.976-126.976 126.976c-69.632 0-126.976-57.344-126.976-126.976 0-70.656 57.344-126.976 126.976-126.976zM763.904 296.448l-112.64 50.176c-8.192 4.096-10.24 3.072-52.224 3.072-15.36 0-28.672-10.24-31.744-25.6-14.336-56.32-94.208-56.32-108.544 0-4.096 14.336-16.384 25.6-31.744 25.6h-38.912c-9.216 0-3.072 2.048-126.976-53.248-43.008-19.456-69.632-61.44-69.632-107.52v-98.304c0-18.432 14.336-32.768 32.768-32.768h578.56c18.432 0 32.768 14.336 32.768 32.768v98.304c-1.024 47.104-28.672 89.088-71.68 107.52zM975.872 318.976c-68.608 30.72-67.584 30.72-76.8 30.72-49.152 0-80.896 0-103.424 0-21.504 0-28.672-28.672-9.216-38.912 15.36-8.192 25.6-15.36 36.864-27.648 32.768-35.84 35.84-73.728 35.84-105.472 0-11.264 9.216-20.48 20.48-20.48h110.592c18.432 0 32.768 14.336 32.768 32.768v54.272c1.024 33.792-17.408 62.464-47.104 74.752zM236.544 311.808c19.456 10.24 12.288 38.912-9.216 38.912s-54.272 0-103.424 0c-9.216 0-7.168 0-76.8-30.72-28.672-13.312-47.104-41.984-47.104-73.728v-54.272c0-18.432 14.336-32.768 32.768-32.768h110.592c11.264 0 20.48 9.216 20.48 20.48 0 31.744 3.072 69.632 35.84 105.472 12.288 11.264 21.504 18.432 36.864 26.624z" />
<glyph unicode="&#xe940;" glyph-name="icconlogin" d="M263.168 15.872h-141.312c-17.408 0-27.648 9.216-31.744 15.36-8.192 10.24-11.264 22.528-8.192 34.816 40.96 199.68 217.088 345.088 419.84 350.208 3.072 0 7.168 0 10.24 0s7.168 0 10.24 0c50.176-1.024 98.304-10.24 144.384-27.648 20.48-8.192 44.032 3.072 51.2 23.552 8.192 20.48-3.072 44.032-23.552 51.2-6.144 2.048-13.312 5.12-20.48 7.168 66.56 49.152 109.568 129.024 109.568 218.112 1.024 149.504-121.856 271.36-271.36 271.36s-272.384-121.856-272.384-272.384c0-89.088 43.008-167.936 109.568-218.112-60.416-20.48-117.76-51.2-167.936-92.16-91.136-74.752-154.624-179.2-178.176-294.912-7.168-35.84 1.024-73.728 24.576-101.376 23.552-28.672 57.344-45.056 94.208-45.056h141.312c22.528 0 39.936 17.408 39.936 39.936s-18.432 39.936-39.936 39.936zM319.488 687.616c0 105.472 86.016 192.512 192.512 192.512 105.472 0 192.512-86.016 192.512-192.512 0-102.4-80.896-186.368-182.272-191.488-3.072 0-6.144 0-9.216 0s-6.144 0-9.216 0c-102.4 5.12-184.32 89.088-184.32 191.488zM993.28 270.848c-17.408 37.888-55.296 63.488-98.304 63.488h-124.928c-45.056 0-83.968-26.624-100.352-67.584-2.048-5.12-5.12-12.288-7.168-20.48h-262.144c-11.264 0-21.504-4.096-28.672-12.288l-68.608-70.656c-15.36-15.36-15.36-39.936 0-56.32l69.632-71.68c7.168-7.168 17.408-12.288 28.672-12.288h131.072c22.528 0 39.936 17.408 39.936 39.936s-17.408 39.936-39.936 39.936h-113.664l-30.72 31.744 29.696 30.72h275.456c18.432 0 34.816 12.288 38.912 30.72 3.072 13.312 7.168 25.6 13.312 40.96 4.096 10.24 13.312 16.384 25.6 16.384v0h124.928c11.264 0 21.504-6.144 25.6-15.36 10.24-23.552 23.552-61.44 23.552-102.4s-12.288-78.848-23.552-103.424c-4.096-10.24-14.336-16.384-25.6-16.384v0h-126.976c-11.264 0-21.504 7.168-25.6 17.408-5.12 11.264-9.216 24.576-12.288 39.936-5.12 21.504-26.624 34.816-48.128 29.696s-34.816-26.624-29.696-48.128c5.12-19.456 10.24-35.84 16.384-51.2 16.384-40.96 56.32-67.584 99.328-67.584h125.952c43.008 0 80.896 25.6 98.304 64.512 13.312 31.744 30.72 80.896 29.696 136.192 1.024 54.272-15.36 103.424-29.696 134.144zM902.144 135.68c0-22.056-17.88-39.936-39.936-39.936s-39.936 17.88-39.936 39.936c0 22.056 17.88 39.936 39.936 39.936s39.936-17.88 39.936-39.936z" />
<glyph unicode="&#xe941;" glyph-name="icconReg" d="M704.512 519.68c0 22.528-17.408 39.936-39.936 39.936h-411.648c-22.528 0-39.936-17.408-39.936-39.936s17.408-39.936 39.936-39.936h411.648c22.528 0 39.936 18.432 39.936 39.936zM252.928 399.872c-22.528 0-39.936-17.408-39.936-39.936s17.408-39.936 39.936-39.936h249.856c22.528 0 39.936 17.408 39.936 39.936s-17.408 39.936-39.936 39.936h-249.856zM347.136 15.872h-134.144c-44.032 0-79.872 35.84-79.872 79.872v704.512c0 44.032 35.84 79.872 79.872 79.872h491.52c44.032 0 79.872-35.84 79.872-79.872v-245.76c0-22.528 17.408-39.936 39.936-39.936s39.936 17.408 39.936 39.936v245.76c1.024 88.064-70.656 159.744-159.744 159.744h-491.52c-88.064 0-159.744-71.68-159.744-159.744v-704.512c0-88.064 71.68-159.744 159.744-159.744h134.144c22.528 0 39.936 17.408 39.936 39.936s-18.432 39.936-39.936 39.936zM935.936 380.416c-47.104 47.104-122.88 47.104-169.984 0l-219.136-219.136c-5.12-5.12-8.192-10.24-10.24-16.384l-48.128-157.696c-4.096-14.336-1.024-28.672 9.216-39.936 7.168-8.192 18.432-12.288 28.672-12.288 3.072 0 7.168 0 10.24 1.024l161.792 45.056c6.144 2.048 12.288 5.12 17.408 10.24l219.136 219.136c48.128 47.104 48.128 123.904 1.024 169.984zM667.648 56.832l-80.896-22.528 23.552 77.824 148.48 147.456 56.32-56.32-147.456-146.432zM879.616 267.776l-8.192-8.192-56.32 56.32 8.192 8.192c15.36 15.36 40.96 15.36 56.32 0s15.36-40.96 0-56.32zM664.576 720.384h-411.648c-22.528 0-39.936-17.408-39.936-39.936s17.408-39.936 39.936-39.936h411.648c22.528 0 39.936 17.408 39.936 39.936 0 21.504-17.408 39.936-39.936 39.936z" />
<glyph unicode="&#xe942;" glyph-name="icconFavor" d="M532.48 141.824c-7.168-6.144-14.336-12.288-20.48-17.408-75.776 62.464-286.72 238.592-364.544 324.608-74.752 83.968-75.776 202.752-1.024 277.504 37.888 37.888 88.064 57.344 138.24 57.344s100.352-19.456 138.24-57.344l57.344-56.32c7.168-7.168 15.36-11.264 24.576-12.288 14.336-3.072 30.72 1.024 41.984 12.288l57.344 56.32c75.776 75.776 199.68 75.776 276.48 0 58.368-58.368 69.632-144.384 35.84-219.136 26.624-17.408 50.176-38.912 69.632-63.488 65.536 113.664 52.224 253.952-40.96 347.136-111.616 111.616-292.864 111.616-403.456 0l-29.696-26.624-25.6 25.6c-111.616 111.616-292.864 111.616-404.48 1.024-108.544-109.568-109.568-282.624-1.024-402.432 98.304-109.568 389.12-346.112 401.408-356.352 8.192-7.168 18.432-10.24 28.672-10.24 0 0 1.024 0 1.024 0 10.24 0 20.48 3.072 29.696 10.24 3.072 2.048 21.504 17.408 49.152 39.936-23.552 19.456-43.008 43.008-58.368 69.632zM768 534.016c-141.312 0-256-114.688-256-256s114.688-256 256-256c141.312 0 256 114.688 256 256s-114.688 256-256 256zM864.256 246.272h-63.488v-64.512c0-17.408-14.336-31.744-31.744-31.744s-31.744 14.336-31.744 31.744v63.488h-63.488c-17.408 0-31.744 14.336-31.744 31.744s14.336 31.744 31.744 31.744h63.488v63.488c0 17.408 14.336 31.744 31.744 31.744s31.744-14.336 31.744-31.744v-63.488h63.488c17.408 0 31.744-14.336 31.744-31.744 0-16.384-14.336-30.72-31.744-30.72z" />
<glyph unicode="&#xe943;" glyph-name="icconFavorFull" d="M942.080 791.040c-111.616 111.616-292.864 111.616-403.456 0l-26.624-26.624-25.6 25.6c-111.616 111.616-292.864 111.616-404.48 1.024-108.544-109.568-109.568-282.624-1.024-402.432 98.304-109.568 389.12-346.112 401.408-356.352 8.192-7.168 18.432-10.24 28.672-10.24 0 0 1.024 0 1.024 0 10.24-1.024 20.48 3.072 29.696 10.24 12.288 10.24 303.104 246.784 402.432 356.352 107.52 119.808 106.496 292.864-2.048 402.432z" />
<glyph unicode="&#xe944;" glyph-name="icconALL" d="M388.096 929.28h-325.632c-34.816 0-62.464-27.648-62.464-62.464v-325.632c0-34.816 27.648-62.464 62.464-62.464h325.632c33.792 0 62.464 27.648 62.464 62.464v325.632c-1.024 34.816-28.672 62.464-62.464 62.464zM930.816 960h-325.632c-51.2 0-93.184-41.984-93.184-93.184v-325.632c0-51.2 41.984-93.184 93.184-93.184h325.632c51.2 0 93.184 41.984 93.184 93.184v325.632c0 51.2-41.984 93.184-93.184 93.184zM961.536 541.184c0-17.408-14.336-30.72-30.72-30.72h-325.632c-17.408 0-30.72 14.336-30.72 30.72v325.632c0 17.408 14.336 30.72 30.72 30.72h325.632c17.408 0 30.72-14.336 30.72-30.72v-325.632zM388.096 385.536h-325.632c-33.792 0-62.464-27.648-62.464-62.464v-325.632c0-33.792 27.648-62.464 62.464-62.464h325.632c33.792 0 62.464 27.648 62.464 62.464v326.656c-1.024 33.792-28.672 61.44-62.464 61.44zM930.816 385.536h-325.632c-33.792 0-62.464-27.648-62.464-62.464v-325.632c0-33.792 27.648-62.464 62.464-62.464h325.632c33.792 0 62.464 27.648 62.464 62.464v326.656c0 33.792-27.648 61.44-62.464 61.44z" />
<glyph unicode="&#xe945;" glyph-name="icconMG" d="M512 958.976c-282.624 0-512-229.376-512-513.024 0-51.2 7.168-100.352 22.528-148.48 9.216 13.312 18.432 26.624 27.648 39.936 35.84 52.224 70.656 105.472 105.472 158.72l25.6 39.936c8.192 13.312 17.408 27.648 24.576 39.936 17.408 27.648 32.768 54.272 48.128 81.92 7.168 14.336 15.36 27.648 23.552 40.96 8.192 14.336 15.36 27.648 22.528 40.96 7.168 14.336 15.36 28.672 21.504 40.96l20.48 41.984 2.048 3.072c11.264 22.528 38.912 31.744 62.464 21.504 17.408-9.216 27.648-27.648 26.624-47.104 0-24.576-5.12-50.176-6.144-73.728-2.048-24.576-3.072-50.176-5.12-74.752-2.048-50.176-3.072-100.352-3.072-150.528s3.072-99.328 7.168-147.456c3.072-23.552 6.144-47.104 11.264-70.656 4.096-20.48 10.24-40.96 19.456-60.416 3.072-6.144 6.144-11.264 11.264-16.384 3.072-2.048 1.024-1.024 3.072-1.024v0l2.048 1.024h1.024l3.072 1.024c1.024 1.024 3.072 2.048 4.096 3.072 7.168 5.12 14.336 12.288 20.48 19.456 15.36 17.408 28.672 35.84 40.96 55.296 13.312 19.456 25.6 40.96 37.888 62.464 24.576 43.008 47.104 87.040 68.608 132.096 10.24 22.528 21.504 45.056 31.744 68.608 10.24 22.528 20.48 46.080 29.696 68.608 9.216 23.552 36.864 34.816 60.416 25.6 15.36-6.144 25.6-18.432 27.648-34.816 0-5.12 1.024-13.312 2.048-20.48l3.072-21.504c2.048-14.336 4.096-28.672 6.144-41.984 5.12-28.672 10.24-56.32 17.408-83.968s17.408-54.272 28.672-80.896c11.264-26.624 25.6-51.2 43.008-73.728 4.096-6.144 3.072-13.312-2.048-17.408s-11.264-4.096-15.36 0c-23.552 20.48-44.032 44.032-62.464 69.632-17.408 25.6-32.768 52.224-47.104 79.872-9.216 18.432-17.408 37.888-25.6 56.32-6.144-11.264-10.24-22.528-16.384-32.768-22.528-46.080-45.056-92.16-71.68-138.24-13.312-24.576-26.624-47.104-40.96-69.632-15.36-23.552-31.744-46.080-50.176-66.56-10.24-12.288-22.528-22.528-34.816-32.768-4.096-3.072-7.168-6.144-12.288-7.168l-8.192-5.12-5.12-2.048h-1.024l-3.072-1.024h-2.048l-4.096-1.024c-3.072-1.024-5.12-2.048-7.168-2.048-5.12-1.024-11.264-2.048-17.408-3.072-12.288-1.024-25.6 1.024-36.864 5.12s-21.504 10.24-30.72 17.408c-14.336 12.288-26.624 27.648-34.816 44.032-13.312 26.624-22.528 54.272-28.672 83.968-6.144 26.624-9.216 53.248-12.288 79.872-6.144 52.224-7.168 104.448-8.192 156.672v73.728c-9.216-17.408-18.432-35.84-28.672-52.224-7.168-14.336-15.36-28.672-23.552-41.984l-23.552-41.984c-31.744-56.32-64.512-111.616-99.328-166.912-21.504-35.84-44.032-71.68-66.56-106.496 154.624-236.544 472.064-302.080 708.608-147.456s302.080 472.064 147.456 708.608c-90.112 147.456-249.856 234.496-422.912 234.496z" />
<glyph unicode="&#xe946;" glyph-name="icconAG" d="M242.688 406.016h112.64l-37.888 100.352zM1024 736.768h-508.928l-12.288-67.584h-412.672l-90.112-509.952h508.928l1.024 67.584h423.936l90.112 509.952zM199.68 346.624l-89.088-119.808h-69.632l294.912 396.288 110.592-275.456-21.504-120.832-46.080 119.808h-179.2zM494.592 226.816v0zM702.464 350.72c67.584 0 122.88 62.464 122.88 62.464h-107.52l10.24 60.416h172.032l-9.216-60.416c0 0-67.584-121.856-196.608-121.856s-177.152 114.688-153.6 199.68c23.552 86.016 107.52 177.152 220.16 177.152s150.528-94.208 151.552-122.88h-62.464c0 0-26.624 64.512-101.376 64.512s-146.432-80.896-151.552-137.216c-6.144-66.56 43.008-121.856 105.472-121.856z" />
<glyph unicode="&#xe947;" glyph-name="icconHABA" d="M849.92 550.4c0 3.072 0 5.12 0 8.192 0 12.288-9.216 20.48-20.48 20.48-12.288 0-20.48-8.192-21.504-20.48 0-4.096 0-9.216-1.024-13.312-1.024-12.288-11.264-21.504-23.552-21.504s-22.528 10.24-23.552 22.528c0 2.048 0 4.096 0 7.168 0 16.384 0 32.768 0 49.152 0 12.288-9.216 21.504-20.48 22.528-11.264 0-20.48-6.144-22.528-19.456 0-2.048 0-3.072 0-5.12-1.024-14.336-16.384-24.576-30.72-20.48-10.24 3.072-16.384 11.264-16.384 23.552 0 29.696 0 58.368 0 88.064 0 2.048 0 4.096 0 7.168-1.024 14.336-15.36 24.576-28.672 19.456-8.192-3.072-14.336-10.24-14.336-20.48 0-12.288 0-23.552 0-35.84s-9.216-21.504-20.48-22.528c-11.264-2.048-21.504 4.096-24.576 15.36-1.024 4.096-1.024 8.192-1.024 12.288 0 28.672 0 56.32 0 84.992 0 6.144 0 11.264-1.024 17.408-2.048 11.264-14.336 19.456-25.6 16.384-10.24-3.072-16.384-10.24-16.384-21.504 0-27.648 0-54.272 0-81.92 0-4.096 0-7.168-1.024-11.264-2.048-10.24-12.288-18.432-23.552-18.432s-20.48 9.216-22.528 20.48c-1.024 4.096-1.024 8.192-1.024 12.288 0 8.192 0 17.408 0 25.6-1.024 10.24-9.216 17.408-19.456 18.432-9.216 1.024-19.456-6.144-21.504-14.336-1.024-3.072-1.024-7.168-1.024-11.264 0-19.456 0-37.888 0-57.344 0-3.072 0-6.144-1.024-10.24-2.048-11.264-11.264-19.456-22.528-19.456s-21.504 8.192-23.552 19.456c-1.024 3.072-1.024 6.144-1.024 10.24 0 27.648 0 54.272 0 81.92 0 3.072 0 7.168 0 10.24-1.024 10.24-9.216 18.432-19.456 18.432-10.24 1.024-19.456-6.144-22.528-15.36-1.024-4.096-1.024-7.168-1.024-11.264 0-44.032 0-88.064 0-132.096 0-3.072 0-5.12 0-8.192-1.024-10.24-9.216-19.456-18.432-20.48-11.264-2.048-22.528 4.096-25.6 15.36-1.024 3.072-1.024 7.168-2.048 11.264 0 12.288 0 23.552 0 35.84 0 10.24-7.168 18.432-16.384 19.456-11.264 2.048-21.504-3.072-24.576-13.312-1.024-4.096-2.048-8.192-2.048-12.288 0-30.72 0-60.416 0-91.136 0-4.096 0-8.192 0-12.288-1.024-17.408-19.456-27.648-34.816-19.456-8.192 4.096-12.288 11.264-12.288 20.48 0 11.264 0 22.528 0 33.792 0 13.312-9.216 22.528-22.528 21.504-12.288 0-21.504-9.216-21.504-22.528 0-9.216 0-19.456 0-28.672 0-130.048 0-259.072 0-388.096 0-5.12 2.048-8.192 6.144-11.264 98.304-56.32 195.584-112.64 293.888-168.96 12.288-7.168 24.576-14.336 37.888-21.504 3.072 2.048 6.144 3.072 9.216 5.12 91.136 53.248 182.272 105.472 273.408 157.696 16.384 9.216 31.744 18.432 48.128 27.648 4.096 2.048 7.168 5.12 6.144 10.24 0 1.024 0 3.072 0 4.096-1.024 135.168-1.024 271.36-1.024 407.552zM672.768 209.408c0-3.072 0-7.168-1.024-10.24-6.144-2.048-98.304-2.048-107.52 0 0 13.312 0 25.6 0 38.912s0 26.624 0 39.936h-104.448c0-26.624 0-53.248 0-78.848-6.144-2.048-94.208-2.048-107.52-1.024 0 3.072-1.024 5.12-1.024 8.192 0 78.848 0 157.696 0 236.544 0 2.048 0 4.096 0 7.168 3.072 0 5.12 1.024 8.192 1.024 30.72 0 60.416 0 91.136 0 2.048 0 5.12 0 8.192-1.024 1.024-14.336 0-28.672 1.024-41.984 0-13.312 0-27.648 0-40.96 6.144-2.048 92.16-3.072 104.448-1.024 1.024 9.216 0 17.408 0 26.624s0 18.432 0 28.672v27.648c3.072 0 6.144 1.024 9.216 1.024 29.696 0 60.416 0 90.112 0 9.216 0 9.216 0 9.216-9.216 0-41.984 0-83.968 0-125.952 0-33.792 0-69.632 0-105.472zM536.576 881.152c0-11.264 0-22.528 0-33.792 0-12.288 10.24-20.48 21.504-20.48 12.288 0 20.48 9.216 21.504 23.552 0 20.48 0 41.984 0 62.464 0 1.024 0 2.048 0 4.096-2.048 12.288-11.264 20.48-23.552 19.456-10.24-1.024-20.48-10.24-19.456-22.528 0-11.264 0-22.528 0-32.768v0zM462.848 766.464c10.24-2.048 20.48 3.072 23.552 12.288 1.024 4.096 2.048 8.192 2.048 12.288 0 10.24 0 19.456 0 29.696v0c0 12.288 0 23.552 0 35.84-1.024 11.264-10.24 19.456-20.48 19.456s-20.48-8.192-21.504-18.432c0-2.048 0-5.12 0-7.168 0-18.432 0-37.888 0-56.32 0-3.072 0-6.144 0-8.192 1.024-10.24 8.192-17.408 16.384-19.456zM466.944 918.016c12.288 0 21.504 9.216 21.504 21.504 0 10.24-8.192 21.504-21.504 20.48-12.288 0-21.504-9.216-21.504-21.504 1.024-12.288 9.216-20.48 21.504-20.48zM648.192 750.080c12.288 0 21.504 9.216 21.504 21.504 0 14.336-12.288 21.504-22.528 21.504-12.288-1.024-21.504-9.216-20.48-21.504 0-13.312 9.216-22.528 21.504-21.504z" />
<glyph unicode="&#xe948;" glyph-name="icconPP" d="M620.544 417.28c119.808 7.168 56.32 150.528-61.44 143.36-111.616-6.144-61.44-150.528 61.44-143.36zM314.368 635.392c52.224 32.768 112.64 50.176 174.080 52.224-7.168 22.528-31.744 118.784 12.288 211.968-84.992-64.512-69.632-162.816-69.632-162.816s-53.248 138.24-122.88 223.232c-9.216-108.544 24.576-252.928 24.576-252.928s-43.008 89.088-148.48 94.208c88.064-50.176 121.856-141.312 130.048-165.888zM512 649.728c-197.632 0-357.376-159.744-357.376-357.376 0-196.608 159.744-356.352 357.376-356.352s357.376 159.744 357.376 357.376c0 196.608-159.744 356.352-357.376 356.352zM512-26.112c-176.128 0-319.488 143.36-319.488 319.488s143.36 319.488 319.488 319.488c176.128 0 319.488-143.36 319.488-319.488v0c0-177.152-143.36-319.488-319.488-319.488zM304.128 376.32h-65.536v-192.512h30.72v74.752h34.816c21.504 0 37.888 5.12 49.152 15.36s17.408 24.576 17.408 43.008c0 18.432-6.144 32.768-16.384 43.008-11.264 10.24-27.648 16.384-50.176 16.384zM301.056 283.136h-30.72v66.56h30.72c13.312 0 23.552-3.072 29.696-8.192 6.144-6.144 9.216-14.336 9.216-24.576 0-22.528-13.312-33.792-38.912-33.792zM424.96 376.32h-31.744v-192.512h98.304v23.552h-66.56zM575.488 373.248l-70.656-189.44h32.768l14.336 41.984h80.896l14.336-41.984h33.792l-70.656 189.44h-34.816zM561.152 249.344l31.744 90.112 31.744-90.112h-63.488zM727.040 287.232l-44.032 89.088h-36.864l64.512-122.88v-69.632h31.744v69.632l63.488 122.88h-34.816z" />
<glyph unicode="&#xe949;" glyph-name="icconPG" d="M44.032 239.104h-44.032v-69.632h17.408v26.624h26.624v9.216h9.216v26.624h-9.216v7.168zM34.816 212.48h-17.408v9.216h17.408v-9.216zM105.472 239.104h-35.84v-9.216h-8.192v-52.224h9.216v-8.192h34.816v9.216h9.216v52.224h-9.216v8.192zM96.256 186.88h-17.408v34.816h17.408v-34.816zM165.888 239.104h-34.816v-9.216h-8.192v-52.224h8.192v-8.192h34.816v8.192h9.216v17.408h-17.408v-8.192h-17.408v34.816h17.408v-9.216h17.408v17.408h-9.216zM219.136 212.48h-17.408v26.624h-17.408v-69.632h17.408v25.6h17.408v-25.6h17.408v25.6h-9.216v17.408h9.216v26.624h-17.408zM244.736 169.472h53.248v17.408h-35.84v8.192h26.624v17.408h-26.624v9.216h35.84v17.408h-53.248zM306.176 221.696h17.408v-52.224h17.408v52.224h17.408v17.408h-52.224zM411.648 195.072h8.192v-8.192h-17.408v34.816h26.624v17.408h-34.816v-9.216h-9.216v-52.224h9.216v-8.192h34.816v8.192h8.192v34.816h-25.6zM490.496 239.104h-34.816v-9.216h-9.216v-61.44h17.408v17.408h17.408v-17.408h17.408v61.44h-9.216v9.216zM481.28 204.288h-17.408v17.408h17.408v-17.408zM560.128 229.888h-9.216v-8.192h-8.192v-9.216h-9.216v9.216h-8.192v8.192h-9.216v9.216h-8.192v-69.632h17.408v25.6h8.192v-8.192h9.216v8.192h8.192v-25.6h18.432v69.632h-9.216zM577.536 169.472h52.224v17.408h-34.816v8.192h26.624v17.408h-26.624v9.216h34.816v17.408h-52.224zM647.168 229.888h-8.192v-25.6h8.192v-9.216h26.624v-8.192h-34.816v-17.408h44.032v8.192h8.192v26.624h-8.192v8.192h-26.624v9.216h34.816v17.408h-44.032zM726.016 229.888h-8.192v-25.6h8.192v-9.216h26.624v-8.192h-34.816v-17.408h44.032v8.192h8.192v26.624h-8.192v8.192h-26.624v9.216h34.816v17.408h-44.032zM822.272 239.104h-34.816v-9.216h-9.216v-52.224h9.216v-9.216h34.816v9.216h9.216v52.224h-9.216v9.216zM814.080 186.88h-17.408v34.816h17.408v-34.816zM839.68 169.472h18.432v25.6h25.6v17.408h-25.6v9.216h34.816v17.408h-53.248zM901.12 221.696h17.408v-52.224h18.432v52.224h17.408v17.408h-53.248zM351.232 726.528h37.888v-37.888h-37.888v37.888zM0 683.52h37.888v-37.888h-37.888v37.888zM44.032 331.264h37.888v-37.888h-37.888v37.888zM263.168 419.328h37.888v-37.888h-37.888v37.888zM88.064 419.328h37.888v-37.888h-37.888v37.888zM132.096 726.528h37.888v-37.888h-37.888v37.888zM88.064 463.36h37.888v-37.888h-37.888v37.888zM176.128 726.528h37.888v-37.888h-37.888v37.888zM44.032 726.528h37.888v-37.888h-37.888v37.888zM220.16 419.328h37.888v-37.888h-37.888v37.888zM88.064 683.52h37.888v-37.888h-37.888v37.888zM176.128 683.52h37.888v-37.888h-37.888v37.888zM132.096 683.52h37.888v-37.888h-37.888v37.888zM132.096 463.36h37.888v-37.888h-37.888v37.888zM176.128 463.36h37.888v-37.888h-37.888v37.888zM132.096 419.328h37.888v-37.888h-37.888v37.888zM88.064 726.528h37.888v-37.888h-37.888v37.888zM220.16 463.36h37.888v-37.888h-37.888v37.888zM395.264 507.392h37.888v-37.888h-37.888v37.888zM351.232 639.488h37.888v-37.888h-37.888v37.888zM351.232 683.52h37.888v-37.888h-37.888v37.888zM351.232 595.456h37.888v-37.888h-37.888v37.888zM395.264 551.424h37.888v-37.888h-37.888v37.888zM395.264 639.488h37.888v-37.888h-37.888v37.888zM395.264 595.456h37.888v-37.888h-37.888v37.888zM351.232 551.424h37.888v-37.888h-37.888v37.888zM307.2 463.36h37.888v-37.888h-37.888v37.888zM307.2 639.488h37.888v-37.888h-37.888v37.888zM351.232 507.392h37.888v-37.888h-37.888v37.888zM220.16 726.528h37.888v-37.888h-37.888v37.888zM307.2 507.392h37.888v-37.888h-37.888v37.888zM351.232 463.36h37.888v-37.888h-37.888v37.888zM307.2 726.528h37.888v-37.888h-37.888v37.888zM307.2 683.52h37.888v-37.888h-37.888v37.888zM220.16 683.52h37.888v-37.888h-37.888v37.888zM0 375.296h37.888v-37.888h-37.888v37.888zM0 419.328h37.888v-37.888h-37.888v37.888zM0 463.36h37.888v-37.888h-37.888v37.888zM0 507.392h37.888v-37.888h-37.888v37.888zM0 331.264h37.888v-37.888h-37.888v37.888zM263.168 463.36h37.888v-37.888h-37.888v37.888zM263.168 683.52h37.888v-37.888h-37.888v37.888zM44.032 683.52h37.888v-37.888h-37.888v37.888zM263.168 726.528h37.888v-37.888h-37.888v37.888zM0 551.424h37.888v-37.888h-37.888v37.888zM176.128 419.328h37.888v-37.888h-37.888v37.888zM0 595.456h37.888v-37.888h-37.888v37.888zM44.032 507.392h37.888v-37.888h-37.888v37.888zM44.032 551.424h37.888v-37.888h-37.888v37.888zM44.032 639.488h37.888v-37.888h-37.888v37.888zM44.032 595.456h37.888v-37.888h-37.888v37.888zM44.032 463.36h37.888v-37.888h-37.888v37.888zM44.032 419.328h37.888v-37.888h-37.888v37.888zM0 639.488h37.888v-37.888h-37.888v37.888zM44.032 375.296h37.888v-37.888h-37.888v37.888zM784.384 331.264h37.888v-37.888h-37.888v37.888zM696.32 726.528h37.888v-37.888h-37.888v37.888zM696.32 683.52h37.888v-37.888h-37.888v37.888zM784.384 375.296h37.888v-37.888h-37.888v37.888zM784.384 507.392h37.888v-37.888h-37.888v37.888zM696.32 375.296h37.888v-37.888h-37.888v37.888zM784.384 683.52h37.888v-37.888h-37.888v37.888zM652.288 375.296h37.888v-37.888h-37.888v37.888zM652.288 331.264h37.888v-37.888h-37.888v37.888zM608.256 683.52h37.888v-37.888h-37.888v37.888zM608.256 639.488h37.888v-37.888h-37.888v37.888zM652.288 726.528h37.888v-37.888h-37.888v37.888zM652.288 683.52h37.888v-37.888h-37.888v37.888zM784.384 551.424h37.888v-37.888h-37.888v37.888zM828.416 551.424h37.888v-37.888h-37.888v37.888zM828.416 639.488h37.888v-37.888h-37.888v37.888zM828.416 507.392h37.888v-37.888h-37.888v37.888zM871.424 683.52h37.888v-37.888h-37.888v37.888zM871.424 551.424h37.888v-37.888h-37.888v37.888zM828.416 683.52h37.888v-37.888h-37.888v37.888zM784.384 726.528h37.888v-37.888h-37.888v37.888zM871.424 639.488h37.888v-37.888h-37.888v37.888zM871.424 375.296h37.888v-37.888h-37.888v37.888zM871.424 507.392h37.888v-37.888h-37.888v37.888zM828.416 375.296h37.888v-37.888h-37.888v37.888zM828.416 419.328h37.888v-37.888h-37.888v37.888zM871.424 463.36h37.888v-37.888h-37.888v37.888zM871.424 419.328h37.888v-37.888h-37.888v37.888zM564.224 639.488h37.888v-37.888h-37.888v37.888zM696.32 331.264h37.888v-37.888h-37.888v37.888zM740.352 375.296h37.888v-37.888h-37.888v37.888zM740.352 331.264h37.888v-37.888h-37.888v37.888zM520.192 419.328h37.888v-37.888h-37.888v37.888zM608.256 419.328h37.888v-37.888h-37.888v37.888zM520.192 463.36h37.888v-37.888h-37.888v37.888zM520.192 507.392h37.888v-37.888h-37.888v37.888zM915.456 463.36h37.888v-37.888h-37.888v37.888zM740.352 507.392h37.888v-37.888h-37.888v37.888zM740.352 726.528h37.888v-37.888h-37.888v37.888zM915.456 507.392h37.888v-37.888h-37.888v37.888zM740.352 551.424h37.888v-37.888h-37.888v37.888zM740.352 683.52h37.888v-37.888h-37.888v37.888zM520.192 551.424h37.888v-37.888h-37.888v37.888zM564.224 595.456h37.888v-37.888h-37.888v37.888zM564.224 507.392h37.888v-37.888h-37.888v37.888zM564.224 683.52h37.888v-37.888h-37.888v37.888zM564.224 551.424h37.888v-37.888h-37.888v37.888zM608.256 331.264h37.888v-37.888h-37.888v37.888zM608.256 375.296h37.888v-37.888h-37.888v37.888zM564.224 463.36h37.888v-37.888h-37.888v37.888zM564.224 419.328h37.888v-37.888h-37.888v37.888zM520.192 595.456h37.888v-37.888h-37.888v37.888zM520.192 639.488h37.888v-37.888h-37.888v37.888zM608.256 726.528h37.888v-37.888h-37.888v37.888zM564.224 375.296h37.888v-37.888h-37.888v37.888zM828.416 331.264h37.888v-37.888h-37.888v37.888zM915.456 551.424h37.888v-37.888h-37.888v37.888zM915.456 419.328h37.888v-37.888h-37.888v37.888zM971.776 235.008h7.168v-25.6h5.12v25.6h7.168v4.096h-19.456zM1018.88 239.104l-9.216-19.456-9.216 19.456h-5.12v-29.696h4.096v20.48l8.192-14.336h5.12l7.168 14.336v-20.48h4.096v29.696z" />
<glyph unicode="&#xe94a;" glyph-name="icconHint" d="M1024 33.28c0-43.008-28.672-77.824-66.56-90.112l-3.072-5.12h-24.576c-1.024 0-1.024 0-2.048 0s-1.024 0-2.048 0l-829.44 1.024c-53.248 0-96.256 43.008-96.256 96.256 0 12.288 3.072 22.528 7.168 33.792l-1.024 2.048 408.576 820.224h4.096c13.312 38.912 49.152 66.56 92.16 66.56 45.056 0 81.92-30.72 93.184-71.68l417.792-819.2-2.048-5.12c1.024-9.216 4.096-18.432 4.096-28.672zM574.464 641.536h-126.976v-382.976h126.976v382.976zM574.464 196.096h-126.976v-128h126.976v128z" />
<glyph unicode="&#xe94b;" glyph-name="icconBonus" d="M355.328-64c-17.408 0-34.816 3.072-51.2 10.24-33.792 14.336-60.416 41.984-73.728 75.776l-31.744 84.992c-5.12 13.312-15.36 23.552-27.648 27.648l-83.968 31.744c-34.816 13.312-62.464 39.936-75.776 73.728-15.36 33.792-14.336 72.704 1.024 105.472l36.864 81.92c6.144 12.288 6.144 26.624 0 39.936l-36.864 81.92c-15.36 33.792-15.36 71.68-2.048 105.472s41.984 60.416 75.776 73.728l84.992 31.744c13.312 5.12 23.552 15.36 27.648 27.648l31.744 83.968c13.312 34.816 39.936 62.464 73.728 75.776 33.792 16.384 72.704 15.36 105.472 0l81.92-36.864c12.288-6.144 26.624-6.144 39.936 0v0l81.92 36.864c33.792 15.36 71.68 16.384 105.472 2.048s60.416-41.984 73.728-75.776l31.744-84.992c5.12-13.312 15.36-23.552 27.648-27.648l83.968-31.744c34.816-13.312 62.464-39.936 75.776-73.728 14.336-33.792 13.312-72.704-2.048-105.472l-36.864-81.92c-6.144-12.288-6.144-26.624 0-39.936l36.864-81.92c15.36-33.792 15.36-71.68 2.048-105.472-14.336-33.792-41.984-60.416-75.776-73.728l-84.992-31.744c-13.312-5.12-23.552-15.36-27.648-27.648l-31.744-83.968c-13.312-34.816-39.936-62.464-73.728-75.776-33.792-14.336-72.704-13.312-105.472 2.048l-81.92 36.864c-12.288 6.144-26.624 6.144-39.936 0l-81.92-37.888c-15.36-9.216-34.816-13.312-53.248-13.312zM355.328 875.008c-6.144 0-12.288-1.024-18.432-4.096-12.288-5.12-21.504-15.36-26.624-27.648l-31.744-83.968c-13.312-35.84-41.984-64.512-77.824-77.824l-83.968-31.744c-12.288-5.12-22.528-14.336-27.648-26.624s-5.12-25.6 1.024-37.888l36.864-81.92c16.384-34.816 16.384-75.776 0-110.592l-36.864-81.92c-5.12-12.288-6.144-25.6-1.024-37.888s15.36-21.504 27.648-26.624l83.968-31.744c35.84-13.312 64.512-41.984 77.824-77.824l31.744-83.968c5.12-12.288 14.336-22.528 26.624-27.648s25.6-5.12 37.888 1.024l81.92 36.864c34.816 16.384 74.752 16.384 110.592 0l81.92-36.864c12.288-5.12 25.6-6.144 37.888-1.024s21.504 15.36 26.624 27.648l31.744 83.968c13.312 35.84 41.984 64.512 77.824 77.824l83.968 31.744c12.288 5.12 22.528 14.336 27.648 26.624s5.12 25.6-1.024 37.888l-36.864 81.92c-16.384 34.816-16.384 74.752 0 110.592l36.864 81.92c5.12 12.288 6.144 25.6 1.024 37.888s-15.36 21.504-27.648 26.624l-83.968 31.744c-35.84 13.312-64.512 41.984-77.824 77.824l-31.744 83.968c-5.12 12.288-14.336 22.528-26.624 27.648s-25.6 5.12-37.888-1.024l-81.92-36.864c-34.816-16.384-74.752-16.384-110.592 0l-81.92 36.864c-6.144 3.072-13.312 5.12-19.456 5.12zM384 491.008c-47.104 0-84.992 37.888-84.992 84.992s37.888 84.992 84.992 84.992 84.992-37.888 84.992-84.992c0-47.104-37.888-84.992-84.992-84.992zM640 235.008c-47.104 0-84.992 37.888-84.992 84.992s37.888 84.992 84.992 84.992c47.104 0 84.992-37.888 84.992-84.992s-37.888-84.992-84.992-84.992zM384 235.008c-9.216 0-17.408 3.072-25.6 8.192-18.432 14.336-22.528 40.96-8.192 59.392l256 340.992c14.336 18.432 40.96 22.528 59.392 8.192s22.528-40.96 8.192-59.392l-256-340.992c-8.192-11.264-20.48-16.384-33.792-16.384z" />
</font>
</defs>
</svg>
